<svg width="32" height="32" viewBox="0 0 32 32" fill="none" xmlns="http://www.w3.org/2000/svg">
    <path d="M15.9866 32C24.8157 32 31.9731 24.8366 31.9731 16C31.9731 7.16344 24.8157 0 15.9866 0C7.15742 0 0 7.16344 0 16C0 24.8366 7.15742 32 15.9866 32Z" fill="#0AC18E"/>
    <path d="M20.9775 10.6452C20.1756 8.82179 18.3345 8.44298 16.0764 8.81537L15.3514 6.00317L13.6386 6.44619L14.3507 9.25197C13.9016 9.36754 13.4397 9.46385 12.9843 9.59226L12.2658 6.80574L10.5529 7.24876L11.2778 10.061C10.9122 10.1637 7.83289 10.9598 7.83289 10.9598L8.30761 12.7897C8.30761 12.7897 9.56498 12.4366 9.55215 12.4687C10.245 12.2889 10.5722 12.6356 10.7325 12.963L12.7212 20.6677C12.7469 20.8924 12.7084 21.2777 12.2273 21.3996C12.2529 21.4125 10.9827 21.7207 10.9827 21.7207L11.1688 23.8523C11.1688 23.8523 14.216 23.069 14.6201 22.9727L15.3579 25.817L17.0643 25.374L16.333 22.5104C16.8077 22.4013 17.2567 22.2857 17.7058 22.1701L18.4371 25.0208L20.15 24.5778L19.4186 21.7399C22.0489 21.0979 23.9092 19.4414 23.5243 16.8988C23.2806 15.3708 21.6126 14.1123 20.2205 13.9711C21.0673 13.2006 21.5036 12.0899 20.9775 10.6452ZM20.15 17.3483C20.49 19.8651 17.0001 20.1733 15.839 20.4751L14.8318 16.7126C15.9994 16.4045 19.579 15.1268 20.15 17.3483ZM18.0458 12.2247C18.4051 14.459 15.422 14.7223 14.4533 14.9727L13.5424 11.5569C14.5111 11.3065 17.3145 10.1573 18.0458 12.2247Z" fill="white"/>
</svg>
