<svg width="32" height="32" viewBox="0 0 32 32" fill="none" xmlns="http://www.w3.org/2000/svg">
    <circle cx="16" cy="16" r="16" fill="#2F6AC7"/>
    <path fill-rule="evenodd" clip-rule="evenodd" d="M10.9193 13.0451L20.6969 7.3663L16.1278 4.69702L6.23273 10.485V10.4864V15.4514L15.7535 20.6934V16.3566L11.0991 13.6985L10.9193 13.0451ZM16.04 21.7406L6.23273 16.2845V16.285V21.4853V21.4858L9.95988 23.6766L16.1278 27.303L20.7231 24.6019V14.0171L16.4964 16.3279V21.2443L16.04 21.7406ZM21.4012 24.2023L21.4386 13.2101L20.9045 13.0471L16.1444 15.6734L11.86 13.3L21.3784 7.76453L26 10.4656L26 10.4656V21.4977L26 21.4977V21.4977L24.9688 22.1042L21.4015 24.2023V24.2022L21.4012 24.2023Z" fill="white"/>
</svg>
