<svg xmlns="http://www.w3.org/2000/svg" width="48" height="48" viewBox="0 0 48 48" fill="none">
    <g clip-path="url(#clip0_430_350)">
        <path d="M47.8007 23.9995C47.8007 37.19 37.1083 47.8824 23.9178 47.8824C10.7275 47.8824 0.0348663 37.19 0.0348663 23.9995C0.0348663 10.8092 10.7275 0.116577 23.9178 0.116577C37.1083 0.116577 47.8007 10.8092 47.8007 23.9995Z" fill="#F7931A"/>
        <path d="M29.7165 30.9796C29.6191 31.3103 29.457 31.6183 29.2397 31.8859C29.0223 32.1535 28.754 32.3753 28.4503 32.5384C28.1476 32.7034 27.8151 32.8067 27.4722 32.8423C27.1292 32.8779 26.7826 32.845 26.4525 32.7457L19.7268 30.7426L21.2252 25.7122L27.9504 27.7155H27.9506C29.3373 28.1284 30.1297 29.5927 29.7165 30.9796ZM31.9849 20.6705C32.1498 20.9734 32.2529 21.3059 32.2885 21.6488C32.324 21.9918 32.2912 22.3384 32.192 22.6686C31.7788 24.055 30.3139 24.8469 28.9279 24.4347H28.9277L22.2023 22.4316L23.7002 17.4012L30.4259 19.4042C30.7566 19.5017 31.0646 19.6639 31.3322 19.8812C31.5999 20.0986 31.8217 20.3668 31.9849 20.6705ZM34.9956 19.0417C34.2268 17.6209 32.9508 16.5844 31.4029 16.1234L30.513 15.8586L31.7588 11.6757L28.5625 10.7238L27.3168 14.9066L24.5879 14.0939L25.8339 9.91103L25.0682 9.68295L21.9663 8.75916L20.7655 12.7911L16.9853 11.6652L15.9184 15.2477L19.6986 16.3737L15.815 29.4133L12.0348 28.2875L10.968 31.8702L14.7479 32.9958L13.7346 36.3988L14.5 36.6269L17.6019 37.5507L18.6604 33.9967L21.3957 34.8113L20.3373 38.3656L23.5206 39.3137L24.5791 35.7595L25.4752 36.0263C26.0381 36.1945 26.6223 36.2801 27.2098 36.2806C28.2009 36.2806 29.1828 36.0344 30.0791 35.5493C31.4999 34.7805 32.5362 33.5047 32.9973 31.9564C33.4822 30.3278 33.2429 28.6548 32.4717 27.2777C33.8717 26.5471 34.9873 25.2749 35.4726 23.6456C35.9337 22.0973 35.7642 20.4623 34.9956 19.0417Z" fill="white"/>
    </g>
    <defs>
        <clipPath id="clip0_430_350">
            <rect width="48" height="48" fill="white"/>
        </clipPath>
    </defs>
</svg>