<svg width="32" height="32" viewBox="0 0 32 32" fill="none" xmlns="http://www.w3.org/2000/svg">
    <path d="M25.044 7.68914C25.0367 7.675 25.0248 7.66392 25.0102 7.65789C23.3245 6.87702 21.5455 6.3202 19.7179 6.00137C19.7013 5.99825 19.6842 6.0005 19.6689 6.00779C19.6536 6.01508 19.641 6.02705 19.6329 6.04199C19.3907 6.48587 19.1708 6.94181 18.974 7.40807C17.004 7.10614 15.0001 7.10614 13.03 7.40807C12.832 6.94063 12.6086 6.48457 12.3608 6.04199C12.3523 6.02738 12.3396 6.01568 12.3244 6.00844C12.3093 6.00119 12.2923 5.99873 12.2757 6.00137C10.4479 6.31953 8.66886 6.87639 6.98336 7.65793C6.96893 7.66411 6.95676 7.67465 6.94851 7.68811C3.57783 12.7702 2.65448 17.7273 3.10744 22.623C3.10872 22.635 3.11237 22.6466 3.11818 22.6572C3.12399 22.6677 3.13184 22.677 3.14127 22.6844C5.10399 24.1516 7.29931 25.2716 9.63355 25.9964C9.64999 26.0014 9.66755 26.0012 9.68386 25.9958C9.70016 25.9904 9.71444 25.9801 9.72478 25.9662C10.2261 25.2775 10.6704 24.5482 11.0529 23.7858C11.0582 23.7753 11.0612 23.7639 11.0618 23.7521C11.0623 23.7404 11.0604 23.7287 11.0561 23.7178C11.0519 23.7069 11.0454 23.697 11.0371 23.6888C11.0287 23.6806 11.0188 23.6743 11.0079 23.6703C10.3074 23.3996 9.62919 23.0734 8.97971 22.6947C8.96791 22.6877 8.958 22.6778 8.95085 22.6661C8.94371 22.6543 8.93955 22.6409 8.93874 22.6271C8.93793 22.6133 8.9405 22.5995 8.94622 22.587C8.95194 22.5744 8.96063 22.5635 8.97153 22.5551C9.10819 22.4521 9.24249 22.3458 9.37431 22.2365C9.38587 22.2269 9.39986 22.2207 9.4147 22.2187C9.42954 22.2167 9.44465 22.2189 9.45832 22.2251C13.7134 24.1857 18.32 24.1857 22.5247 22.2251C22.5384 22.2185 22.5537 22.216 22.5687 22.2178C22.5838 22.2197 22.598 22.2258 22.6098 22.2355C22.7417 22.3454 22.8764 22.4519 23.0136 22.5551C23.0245 22.5634 23.0333 22.5743 23.0391 22.5868C23.0449 22.5993 23.0476 22.613 23.0469 22.6268C23.0462 22.6406 23.0421 22.654 23.035 22.6659C23.028 22.6777 23.0181 22.6876 23.0064 22.6947C22.3584 23.0766 21.6796 23.4026 20.9772 23.6692C20.9663 23.6734 20.9564 23.6799 20.9482 23.6882C20.9399 23.6965 20.9335 23.7065 20.9293 23.7175C20.9251 23.7285 20.9233 23.7403 20.9239 23.7521C20.9246 23.7638 20.9277 23.7753 20.933 23.7858C21.322 24.544 21.7656 25.2724 22.2602 25.965C22.2702 25.9792 22.2844 25.9899 22.3008 25.9955C22.3172 26.0011 22.3349 26.0014 22.3514 25.9963C24.6898 25.2739 26.889 24.1538 28.8542 22.6844C28.8637 22.6774 28.8717 22.6683 28.8775 22.6579C28.8834 22.6475 28.8869 22.636 28.888 22.624C29.4303 16.9641 27.9801 12.0476 25.044 7.68914ZM11.6884 19.642C10.4073 19.642 9.35175 18.4551 9.35175 16.9974C9.35175 15.5397 10.3868 14.3527 11.6884 14.3527C13.0001 14.3527 14.0455 15.5501 14.025 16.9973C14.025 18.4551 12.9899 19.642 11.6884 19.642ZM20.3277 19.642C19.0466 19.642 17.9911 18.4551 17.9911 16.9974C17.9911 15.5397 19.0262 14.3527 20.3277 14.3527C21.6395 14.3527 22.6848 15.5501 22.6643 16.9973C22.6643 18.4551 21.6395 19.642 20.3277 19.642Z" fill="currentColor"/>
</svg>
