<svg width="32" height="32" viewBox="0 0 32 32" fill="none" xmlns="http://www.w3.org/2000/svg">
    <path fill-rule="evenodd" clip-rule="evenodd" d="M16 3.5C8.82183 3.5 3 9.23837 3 16.316C3 21.9785 6.7245 26.7824 11.8909 28.4773C12.5398 28.5959 12.75 28.1986 12.75 27.8611V25.4752C9.13383 26.2505 8.38092 23.9629 8.38092 23.9629C7.78942 22.4816 6.93683 22.0875 6.93683 22.0875C5.75708 21.2918 7.02675 21.3089 7.02675 21.3089C8.33217 21.3986 9.019 22.63 9.019 22.63C10.1782 24.5887 12.0599 24.0227 12.802 23.6948C12.9179 22.8671 13.2548 22.3011 13.6275 21.9817C10.7404 21.656 7.70492 20.557 7.70492 15.6474C7.70492 14.2473 8.213 13.1045 9.04392 12.2074C8.90958 11.8838 8.46433 10.5798 9.17067 8.81544C9.17067 8.81544 10.2627 8.47154 12.7467 10.1291C13.7835 9.84499 14.895 9.70295 16 9.69761C17.105 9.70295 18.2176 9.84499 19.2565 10.1291C21.7384 8.47154 22.8283 8.81544 22.8283 8.81544C23.5357 10.5808 23.0904 11.8849 22.9561 12.2074C23.7903 13.1045 24.294 14.2484 24.294 15.6474C24.294 20.5698 21.2531 21.6539 18.3584 21.9711C18.8243 22.3684 19.25 23.148 19.25 24.3442V27.8611C19.25 28.2018 19.458 28.6023 20.1178 28.4763C25.2798 26.7792 29 21.9764 29 16.316C29 9.23837 23.1793 3.5 16 3.5Z" fill="currentColor"/>
</svg>
