<svg width="32" height="32" viewBox="0 0 32 32" fill="none" xmlns="http://www.w3.org/2000/svg">
    <path d="M5.91562 8.23273L4 6.40115V6H10.6344L15.3625 17.7669L20.7406 6H27.6969V6.40115L25.4594 9.09411C25.2406 9.29313 25.1281 9.58543 25.1562 9.87774V20.4599C25.0875 20.8424 25.2094 21.2311 25.4781 21.5079L28 24.5646V24.9596H20.8562V24.5584L23.375 21.511C23.6469 21.2342 23.7781 20.8486 23.7219 20.463V11.3082L17.45 24.9658H16.7219L11.3281 11.3082V22.1889C11.3281 22.475 11.3281 22.534 11.5156 22.7237L13.4562 24.5989V25H4.04375V24.5989L5.91562 22.7673C6.07812 22.6429 6.1625 22.4345 6.12812 22.2324V8.76759C6.1625 8.56547 6.07812 8.35712 5.91562 8.23273Z" fill="currentColor"/>
</svg>
