<svg width="16" height="17" viewBox="0 0 16 17" fill="none" xmlns="http://www.w3.org/2000/svg">
    <path d="M8.45199 12.664L7.98065 13.136L1.48132 6.63863C1.35719 6.5133 1.28755 6.34403 1.28755 6.16763C1.28755 5.99123 1.35719 5.82197 1.48132 5.69663C1.54304 5.63447 1.61645 5.58511 1.69731 5.55142C1.77818 5.51772 1.86491 5.50034 1.95251 5.50028C2.04012 5.50022 2.12687 5.51747 2.20778 5.55106C2.2887 5.58464 2.36217 5.63389 2.42399 5.69597L7.97932 11.2493L13.53 5.69597C13.5917 5.63386 13.6651 5.58458 13.7459 5.55095C13.8267 5.51731 13.9134 5.5 14.001 5.5C14.0885 5.5 14.1752 5.51731 14.2561 5.55095C14.3369 5.58458 14.4103 5.63386 14.472 5.69597C14.5965 5.82115 14.6665 5.99046 14.6667 6.16703C14.667 6.34359 14.5975 6.5131 14.4733 6.63863L8.47799 12.6366L8.45132 12.664H8.45199Z" fill="currentColor"/>
</svg>
