<svg width="26" height="20" viewBox="0 0 26 20" fill="none" xmlns="http://www.w3.org/2000/svg">
    <path d="M16.2552 0.295758C15.8413 -0.0985423 15.1708 -0.0986137 14.7569 0.29571C14.3429 0.690093 14.3429 1.32925 14.7569 1.72363L22.3823 8.9903H1.05961C0.47449 8.9903 0 9.44234 0 10C0 10.5575 0.474454 11.0097 1.05961 11.0097H24.9404C25.3685 11.0097 25.7556 10.7638 25.9193 10.3861C26.0836 10.0084 25.9921 9.57442 25.6894 9.28603L16.2552 0.295758Z" fill="currentColor"/>
    <path d="M20.6529 12.6575C21.0667 12.2632 21.7373 12.2632 22.1511 12.6574C22.5652 13.0517 22.5651 13.691 22.1511 14.0854L16.2552 19.7042C16.0484 19.9013 15.7764 20 15.506 20C15.2357 20 14.9638 19.9014 14.7569 19.7043C14.3429 19.31 14.3428 18.6707 14.757 18.2764L20.6529 12.6575Z" fill="currentColor"/>
</svg>
