<svg width="56" height="56" viewBox="0 0 56 56" fill="none" xmlns="http://www.w3.org/2000/svg">
    <circle cx="28" cy="28" r="27.5" stroke="currentColor"/>
    <path d="M42.3381 19.9372C42.333 19.8737 42.3164 19.8117 42.289 19.7543C42.2793 19.734 42.2729 19.7136 42.2611 19.6955C42.218 19.6239 42.1586 19.5635 42.0879 19.519L42.0826 19.5158L28.3188 11.3645C28.2364 11.3158 28.1424 11.29 28.0466 11.29C27.9509 11.29 27.8569 11.3158 27.7745 11.3645L13.9594 19.5179C13.8881 19.5621 13.8283 19.6226 13.7851 19.6944C13.7722 19.7136 13.7658 19.734 13.7562 19.7543C13.7296 19.8116 13.7133 19.8731 13.7081 19.9361C13.7059 19.9511 13.6963 19.9639 13.6963 19.9789V36.0879C13.6963 36.2761 13.7957 36.4504 13.9572 36.5478L27.7263 44.7697C27.8108 44.8199 27.9049 44.8445 28.0001 44.8445C28.0076 44.8445 28.0151 44.8381 28.0226 44.8381C28.0311 44.8392 28.0375 44.8445 28.0461 44.8445C28.1425 44.8448 28.2371 44.819 28.3199 44.7697L42.089 36.5478C42.1684 36.5001 42.2341 36.4327 42.2798 36.3521C42.3256 36.2715 42.3497 36.1805 42.3499 36.0879V19.9789C42.3499 19.9639 42.3392 19.9521 42.3381 19.9372ZM27.4654 43.3665L14.7657 35.7831V20.9061L27.4654 28.2489V43.3665ZM41.2805 35.7831L28.5348 43.3944V27.9409C28.5348 27.847 28.5101 27.7548 28.4632 27.6735C28.4163 27.5922 28.3488 27.5247 28.2675 27.4778L15.2908 19.9746L28.045 12.4457L40.7543 19.9724L31.3411 25.3977C31.2253 25.4722 31.1425 25.5883 31.11 25.722C31.0776 25.8558 31.0978 25.9969 31.1666 26.1162C31.2353 26.2354 31.3473 26.3236 31.4794 26.3625C31.6114 26.4013 31.7534 26.3879 31.8758 26.3249L41.2794 20.905L41.2805 35.7831Z" fill="currentColor" stroke="currentColor" stroke-width="0.4"/>
</svg>
