<svg width="200" height="200" viewBox="0 0 201 200" fill="none" xmlns="http://www.w3.org/2000/svg">
    <path opacity="0.734156" d="M195.241 182.87C171.433 156.252 137.788 139.655 100.5 139.655C63.2121 139.655 29.5672 156.252 5.75879 182.87H195.241Z" fill="url(#paint0_linear_591_6030)"/>
    <path opacity="0.734156" d="M100.5 178.438C132.629 178.438 158.675 170.004 158.675 159.601C158.675 149.197 132.629 140.763 100.5 140.763C68.3713 140.763 42.3257 149.197 42.3257 159.601C42.3257 170.004 68.3713 178.438 100.5 178.438Z" fill="url(#paint1_linear_591_6030)"/>
    <path fill-rule="evenodd" clip-rule="evenodd" d="M64.8801 144.386C66.1272 143.466 66.8252 142.631 66.9743 141.88C67.1233 141.129 67.1233 139.88 66.9743 138.131C64.5892 139.45 63.3967 140.646 63.3967 141.718C63.3967 142.789 63.8912 143.679 64.8801 144.386Z" fill="#3483FF"/>
    <path fill-rule="evenodd" clip-rule="evenodd" d="M131.885 147.903C132.829 147.082 133.357 146.336 133.47 145.666C133.583 144.996 133.583 143.88 133.47 142.319C131.665 143.497 130.762 144.564 130.762 145.521C130.762 146.478 131.136 147.272 131.885 147.903Z" fill="#3483FF"/>
    <path d="M114.776 144.012C114.319 137.164 114.864 131.691 116.41 127.594C118.728 121.449 125.861 114.95 131.245 106.274C136.63 97.5988 139.467 92.513 140.782 87.6134C141.659 84.347 141.907 79.6544 141.528 73.5356" stroke="#2B4BA5" stroke-width="0.48583" stroke-linecap="round"/>
    <path fill-rule="evenodd" clip-rule="evenodd" d="M130.644 111.125C131.851 110.942 134.927 111.949 134.514 113.774C134.1 115.599 132.074 115.291 130.914 115.235C129.754 115.179 127.035 113.529 127.199 112.857C127.364 112.185 129.436 111.308 130.644 111.125ZM121.637 108.533C122.602 108.301 123.598 109.25 123.889 110.748C124.18 112.247 124.316 115.143 123.889 115.205C123.462 115.267 120.745 113.324 120.322 111.82C119.899 110.315 120.673 108.764 121.637 108.533ZM126.99 101.833C127.954 101.601 128.95 102.55 129.241 104.049C129.533 105.547 129.668 108.443 129.241 108.505C128.815 108.568 126.098 106.625 125.675 105.12C125.252 103.616 126.026 102.065 126.99 101.833ZM136.588 103.479C137.795 103.296 140.871 104.303 140.458 106.128C140.044 107.953 138.018 107.645 136.858 107.589C135.698 107.533 132.979 105.883 133.143 105.212C133.308 104.54 135.38 103.662 136.588 103.479ZM139.828 83.2767C140.77 83.7568 142.361 85.3248 142.122 85.9736C141.883 86.6225 138.706 86.4699 137.713 85.8677C136.72 85.2655 135.648 84.0414 136.549 83.3103C137.449 82.5793 138.886 82.7966 139.828 83.2767ZM145.493 78.6216C146.436 78.1415 147.873 77.9242 148.773 78.6553C149.673 79.3863 148.602 80.6104 147.609 81.2126C146.615 81.8148 143.439 81.9674 143.199 81.3186C142.96 80.6697 144.551 79.1017 145.493 78.6216ZM138.195 74.0109C138.573 73.6381 139.735 73.9394 140.493 74.8123C141.252 75.6851 142.226 77.5331 142.042 77.6728C141.858 77.8124 139.725 77.2317 138.899 76.386C138.073 75.5403 137.816 74.3837 138.195 74.0109ZM146.004 70.2706C147.152 70.4337 146.865 72.0347 146.323 73.0624C145.782 74.09 143.251 75.3507 142.788 75.0836C142.326 74.8165 142.616 72.8275 143.176 71.9308C143.736 71.034 144.856 70.1075 146.004 70.2706ZM141.051 66.929C141.528 66.929 142.581 67.8386 142.581 69.3807C142.581 70.9228 142.022 72.5896 141.787 72.5896C141.551 72.5896 140.265 71.0477 140.265 69.5056C140.265 67.9635 140.573 66.929 141.051 66.929Z" fill="#3483FF"/>
    <path d="M61.5872 74.0204C61.6351 70.6797 59.2554 67.7992 55.973 67.2246C52.6907 66.6499 49.4783 68.5515 48.3943 71.7108C46.3263 71.6701 44.4011 72.7648 43.3743 74.5652C42.3474 76.3656 42.3828 78.5845 43.4664 80.3511C44.5501 82.1177 46.5091 83.1502 48.5748 83.0434H61.0286C63.3932 83.0117 65.3339 81.1582 65.4804 78.7916C65.627 76.425 63.9298 74.345 61.5872 74.0204Z" fill="url(#paint2_linear_591_6030)"/>
    <path d="M151.266 50.5221V50.479C151.26 46.35 148.293 42.8235 144.235 42.1236C140.176 41.4238 136.204 43.7536 134.824 47.6437C130.92 47.7056 127.805 50.9293 127.866 54.844C127.928 58.7588 131.143 61.8821 135.047 61.8203H150.518C153.498 61.8256 155.968 59.5037 156.155 56.5209C156.342 53.538 154.18 50.9249 151.223 50.5566L151.266 50.5221Z" fill="url(#paint3_linear_591_6030)"/>
    <path d="M100.917 65.5335C103.466 65.5446 108.191 65.7161 115.092 66.048C120.473 66.3069 124.703 70.7451 124.703 76.1324V79.7453C124.703 83.64 123.238 87.3921 120.599 90.2564C113.4 98.0641 107.909 103.23 104.125 105.755C108.867 108.779 116.073 115.724 125.743 126.589C128.271 129.426 129.666 133.095 129.667 136.895V142.224C129.667 148.491 124.741 153.652 118.481 153.944C109.919 154.344 104.082 154.55 100.969 154.562L100.694 154.562C97.5112 154.562 91.0771 154.336 81.3917 153.883C75.7654 153.618 71.3402 148.979 71.3403 143.346V134.818C71.3404 132.37 72.192 129.998 73.7503 128.11C83.5314 116.256 90.8111 108.774 95.5894 105.663C91.7211 102.94 86.1322 97.2905 78.822 88.7141C77.1968 86.8066 76.3045 84.3827 76.3043 81.8768V76.1324C76.3043 70.7468 80.5345 66.3109 85.914 66.0554C93.2463 65.7071 98.1621 65.533 100.661 65.533L100.917 65.5335Z" fill="url(#paint4_linear_591_6030)"/>
    <mask id="mask0_591_6030" style="mask-type:luminance" maskUnits="userSpaceOnUse" x="71" y="65" width="59" height="90">
        <path d="M100.917 65.5335C103.466 65.5446 108.191 65.7161 115.092 66.048C120.473 66.3069 124.703 70.7451 124.703 76.1324V79.7453C124.703 83.64 123.238 87.3921 120.599 90.2564C113.4 98.0641 107.909 103.23 104.125 105.755C108.867 108.779 116.073 115.724 125.743 126.589C128.271 129.426 129.666 133.095 129.667 136.895V142.224C129.667 148.491 124.741 153.652 118.481 153.944C109.919 154.344 104.082 154.55 100.969 154.562L100.694 154.562C97.5112 154.562 91.0771 154.336 81.3917 153.883C75.7654 153.618 71.3402 148.979 71.3403 143.346V134.818C71.3404 132.37 72.192 129.998 73.7503 128.11C83.5314 116.256 90.8111 108.774 95.5894 105.663C91.7211 102.94 86.1322 97.2905 78.822 88.7141C77.1968 86.8066 76.3045 84.3827 76.3043 81.8768V76.1324C76.3043 70.7468 80.5345 66.3109 85.914 66.0554C93.2463 65.7071 98.1621 65.533 100.661 65.533L100.917 65.5335Z" fill="white"/>
    </mask>
    <g mask="url(#mask0_591_6030)">
        <path opacity="0.725121" d="M101.124 71.7379C112.09 71.7379 120.039 69.6231 120.039 67.9097C120.039 66.1962 112.09 65.533 101.124 65.533C90.1578 65.533 81.2681 66.1962 81.2681 67.9097C81.2681 69.6231 90.1578 71.7379 101.124 71.7379Z" fill="#335DB7"/>
    </g>
    <mask id="mask1_591_6030" style="mask-type:luminance" maskUnits="userSpaceOnUse" x="71" y="65" width="59" height="90">
        <path d="M100.917 65.5335C103.466 65.5446 108.191 65.7161 115.092 66.048C120.473 66.3069 124.703 70.7451 124.703 76.1324V79.7453C124.703 83.64 123.238 87.3921 120.599 90.2564C113.4 98.0641 107.909 103.23 104.125 105.755C108.867 108.779 116.073 115.724 125.743 126.589C128.271 129.426 129.666 133.095 129.667 136.895V142.224C129.667 148.491 124.741 153.652 118.481 153.944C109.919 154.344 104.082 154.55 100.969 154.562L100.694 154.562C97.5112 154.562 91.0771 154.336 81.3917 153.883C75.7654 153.618 71.3402 148.979 71.3403 143.346V134.818C71.3404 132.37 72.192 129.998 73.7503 128.11C83.5314 116.256 90.8111 108.774 95.5894 105.663C91.7211 102.94 86.1322 97.2905 78.822 88.7141C77.1968 86.8066 76.3045 84.3827 76.3043 81.8768V76.1324C76.3043 70.7468 80.5345 66.3109 85.914 66.0554C93.2463 65.7071 98.1621 65.533 100.661 65.533L100.917 65.5335Z" fill="white"/>
    </mask>
    <g mask="url(#mask1_591_6030)">
        <path d="M73.1975 151.228C72.1751 149.574 72.4249 147.955 73.947 146.373C76.23 144.001 95.5359 140.999 100.5 140.999C105.464 140.999 116.084 144.845 120.081 144.845C124.079 144.845 126.611 146.157 127.801 149.4C128.595 151.562 122.672 154.631 110.032 158.607L75.717 154.884L73.1975 151.228Z" fill="#3465CA"/>
    </g>
    <mask id="mask2_591_6030" style="mask-type:luminance" maskUnits="userSpaceOnUse" x="71" y="65" width="59" height="90">
        <path d="M100.917 65.5335C103.466 65.5446 108.191 65.7161 115.092 66.048C120.473 66.3069 124.703 70.7451 124.703 76.1324V79.7453C124.703 83.64 123.238 87.3921 120.599 90.2564C113.4 98.0641 107.909 103.23 104.125 105.755C108.867 108.779 116.073 115.724 125.743 126.589C128.271 129.426 129.666 133.095 129.667 136.895V142.224C129.667 148.491 124.741 153.652 118.481 153.944C109.919 154.344 104.082 154.55 100.969 154.562L100.694 154.562C97.5112 154.562 91.0771 154.336 81.3917 153.883C75.7654 153.618 71.3402 148.979 71.3403 143.346V134.818C71.3404 132.37 72.192 129.998 73.7503 128.11C83.5314 116.256 90.8111 108.774 95.5894 105.663C91.7211 102.94 86.1322 97.2905 78.822 88.7141C77.1968 86.8066 76.3045 84.3827 76.3043 81.8768V76.1324C76.3043 70.7468 80.5345 66.3109 85.914 66.0554C93.2463 65.7071 98.1621 65.533 100.661 65.533L100.917 65.5335Z" fill="white"/>
    </mask>
    <g mask="url(#mask2_591_6030)">
        <path d="M85.285 96.93C91.2451 97.8153 95.7124 98.1104 98.6866 97.8153C103.148 97.3726 106.003 95.2603 109.507 95.6769C111.843 95.9546 113.849 97.2708 115.525 99.6255L104.224 105.615L101.46 107.565L100.504 149.803L98.6866 107.565L94.8931 105.615L84.6279 97.8153L85.285 96.93Z" fill="#3465CA"/>
    </g>
    <mask id="mask3_591_6030" style="mask-type:luminance" maskUnits="userSpaceOnUse" x="71" y="65" width="59" height="90">
        <path d="M100.917 65.5335C103.466 65.5446 108.191 65.7161 115.092 66.048C120.473 66.3069 124.703 70.7451 124.703 76.1324V79.7453C124.703 83.64 123.238 87.3921 120.599 90.2564C113.4 98.0641 107.909 103.23 104.125 105.755C108.867 108.779 116.073 115.724 125.743 126.589C128.271 129.426 129.666 133.095 129.667 136.895V142.224C129.667 148.491 124.741 153.652 118.481 153.944C109.919 154.344 104.082 154.55 100.969 154.562L100.694 154.562C97.5112 154.562 91.0771 154.336 81.3917 153.883C75.7654 153.618 71.3402 148.979 71.3403 143.346V134.818C71.3404 132.37 72.192 129.998 73.7503 128.11C83.5314 116.256 90.8111 108.774 95.5894 105.663C91.7211 102.94 86.1322 97.2905 78.822 88.7141C77.1968 86.8066 76.3045 84.3827 76.3043 81.8768V76.1324C76.3043 70.7468 80.5345 66.3109 85.914 66.0554C93.2463 65.7071 98.1621 65.533 100.661 65.533L100.917 65.5335Z" fill="white"/>
    </mask>
    <g mask="url(#mask3_591_6030)">
        <path opacity="0.327916" fill-rule="evenodd" clip-rule="evenodd" d="M111.672 65.5328C116.209 69.7234 118.478 74.2736 118.478 79.1836C118.478 84.0936 116.526 90.5722 112.623 98.6194H125.001L127.874 73.8577L120.039 61.0005L111.672 65.5328Z" fill="#14174E"/>
    </g>
    <mask id="mask4_591_6030" style="mask-type:luminance" maskUnits="userSpaceOnUse" x="71" y="65" width="59" height="90">
        <path d="M100.917 65.5335C103.466 65.5446 108.191 65.7161 115.092 66.048C120.473 66.3069 124.703 70.7451 124.703 76.1324V79.7453C124.703 83.64 123.238 87.3921 120.599 90.2564C113.4 98.0641 107.909 103.23 104.125 105.755C108.867 108.779 116.073 115.724 125.743 126.589C128.271 129.426 129.666 133.095 129.667 136.895V142.224C129.667 148.491 124.741 153.652 118.481 153.944C109.919 154.344 104.082 154.55 100.969 154.562L100.694 154.562C97.5112 154.562 91.0771 154.336 81.3917 153.883C75.7654 153.618 71.3402 148.979 71.3403 143.346V134.818C71.3404 132.37 72.192 129.998 73.7503 128.11C83.5314 116.256 90.8111 108.774 95.5894 105.663C91.7211 102.94 86.1322 97.2905 78.822 88.7141C77.1968 86.8066 76.3045 84.3827 76.3043 81.8768V76.1324C76.3043 70.7468 80.5345 66.3109 85.914 66.0554C93.2463 65.7071 98.1621 65.533 100.661 65.533L100.917 65.5335Z" fill="white"/>
    </mask>
    <g mask="url(#mask4_591_6030)">
        <path opacity="0.327916" fill-rule="evenodd" clip-rule="evenodd" d="M113.76 113.931C119.202 121.223 121.922 127.428 121.922 132.546C121.922 140.223 121.071 142.686 115.525 148.775C111.828 152.834 108.269 154.763 104.847 154.562L111.672 158.607L132.054 153.451L129.667 127.458L113.76 113.931Z" fill="#14174E"/>
    </g>
    <defs>
        <linearGradient id="paint0_linear_591_6030" x1="98.572" y1="139.655" x2="98.572" y2="186.328" gradientUnits="userSpaceOnUse">
            <stop stop-color="#3A6FDB"/>
            <stop offset="1" stop-color="#1D1F31" stop-opacity="0"/>
        </linearGradient>
        <linearGradient id="paint1_linear_591_6030" x1="99.3163" y1="140.763" x2="98.9477" y2="175.867" gradientUnits="userSpaceOnUse">
            <stop stop-color="#3A6FDB"/>
            <stop offset="1" stop-color="#1D1F31" stop-opacity="0"/>
        </linearGradient>
        <linearGradient id="paint2_linear_591_6030" x1="54.0118" y1="63.6323" x2="56.6487" y2="81.344" gradientUnits="userSpaceOnUse">
            <stop stop-color="#6394FF"/>
            <stop offset="1" stop-color="#14174E" stop-opacity="0"/>
        </linearGradient>
        <linearGradient id="paint3_linear_591_6030" x1="141.958" y1="37.6567" x2="145.255" y2="59.6921" gradientUnits="userSpaceOnUse">
            <stop stop-color="#6394FF"/>
            <stop offset="1" stop-color="#14174E" stop-opacity="0"/>
        </linearGradient>
        <linearGradient id="paint4_linear_591_6030" x1="3970.13" y1="9730.42" x2="964.423" y2="1878.53" gradientUnits="userSpaceOnUse">
            <stop stop-color="#2B4BA5"/>
            <stop offset="1" stop-color="#4E83F1"/>
        </linearGradient>
    </defs>
</svg>
