<svg width="16" height="16" viewBox="0 0 16 16" fill="none" xmlns="http://www.w3.org/2000/svg">
    <path d="M6.16663 1.66675H13.1666C13.476 1.66675 13.7728 1.78966 13.9916 2.00846C14.2104 2.22725 14.3333 2.524 14.3333 2.83341V9.83342C14.3333 10.1428 14.2104 10.4396 13.9916 10.6584C13.7728 10.8772 13.476 11.0001 13.1666 11.0001H6.16663C5.85721 11.0001 5.56046 10.8772 5.34167 10.6584C5.12288 10.4396 4.99996 10.1428 4.99996 9.83342V2.83341C4.99996 2.524 5.12288 2.22725 5.34167 2.00846C5.56046 1.78966 5.85721 1.66675 6.16663 1.66675ZM6.16663 2.66675C6.12242 2.66675 6.08003 2.68431 6.04878 2.71556C6.01752 2.74682 5.99996 2.78921 5.99996 2.83341V9.83342C5.99996 9.8553 6.00427 9.87698 6.01265 9.8972C6.02102 9.91742 6.0333 9.93579 6.04878 9.95127C6.06425 9.96674 6.08263 9.97902 6.10285 9.9874C6.12307 9.99577 6.14474 10.0001 6.16663 10.0001H13.1666C13.2108 10.0001 13.2532 9.98252 13.2845 9.95127C13.3157 9.92001 13.3333 9.87762 13.3333 9.83342V2.83341C13.3333 2.78921 13.3157 2.74682 13.2845 2.71556C13.2532 2.68431 13.2108 2.66675 13.1666 2.66675H6.16663ZM9.99996 12.0001C9.99996 11.8675 10.0526 11.7403 10.1464 11.6465C10.2402 11.5528 10.3674 11.5001 10.5 11.5001C10.6326 11.5001 10.7597 11.5528 10.8535 11.6465C10.9473 11.7403 11 11.8675 11 12.0001V13.1667C11 13.4762 10.877 13.7729 10.6583 13.9917C10.4395 14.2105 10.1427 14.3334 9.83329 14.3334H2.83329C2.52387 14.3334 2.22713 14.2105 2.00833 13.9917C1.78954 13.7729 1.66663 13.4762 1.66663 13.1667V6.16675C1.66663 5.85733 1.78954 5.56058 2.00833 5.34179C2.22713 5.123 2.52387 5.00008 2.83329 5.00008H3.99996C4.13257 5.00008 4.25974 5.05276 4.35351 5.14653C4.44728 5.2403 4.49996 5.36747 4.49996 5.50008C4.49996 5.63269 4.44728 5.75987 4.35351 5.85364C4.25974 5.9474 4.13257 6.00008 3.99996 6.00008H2.83329C2.78909 6.00008 2.7467 6.01764 2.71544 6.0489C2.68419 6.08015 2.66663 6.12255 2.66663 6.16675V13.1667C2.66663 13.211 2.68419 13.2533 2.71544 13.2846C2.7467 13.3159 2.78909 13.3334 2.83329 13.3334H9.83329C9.8775 13.3334 9.91989 13.3159 9.95114 13.2846C9.9824 13.2533 9.99996 13.211 9.99996 13.1667V12.0001Z" fill="currentColor"/>
</svg>
