<svg width="200" height="200" viewBox="0 0 200 200" fill="none" xmlns="http://www.w3.org/2000/svg">
    <path opacity="0.734156" d="M3.75 192.15L3.95 187.2L4.4 182.35L5.15 177.65L6.15 173L7.45 168.45L8.95 164L10.7 159.6L12.65 155.35L14.9 151.25L17.3 147.2L19.95 143.35L22.8 139.6L25.8 136L29.05 132.55L32.5 129.25L36.05 126.1L39.8 123.15L43.7 120.4L47.8 117.8L52 115.35L56.35 113.15L60.8 111.15L65.4 109.35L70.15 107.8L75.05 106.4L79.95 105.3L84.95 104.4L90.05 103.75L95.25 103.4L100.6 103.25L106.35 103.4L111.95 103.85L117.45 104.6L122.85 105.6L128.15 106.95L133.35 108.5L138.35 110.3L143.2 112.4L148 114.7L152.6 117.25L157 120L161.2 123L165.3 126.2L169.15 129.6L172.8 133.15L176.2 136.95L179.45 140.9L182.4 144.95L185.15 149.2L187.65 153.65L189.9 158.2L191.85 162.85L193.55 167.65L194.95 172.55L195.85 176.55L196.55 180.6L197.05 184.75L197.4 188.9L197.5 193.2" fill="url(#paint0_linear_1375_256)"/>
    <path opacity="0.32" d="M122.95 161.8L122.8 163.4L122.35 164.85L121.65 166.25L120.75 167.45L119.6 168.5L118.25 169.4L116.8 170.05L115.2 170.45L113.5 170.6L111.75 170.45L110.15 170.05L108.7 169.4L107.35 168.5L106.2 167.45L105.3 166.25L104.6 164.85L104.15 163.4L104 161.8L104.15 160.2L104.6 158.7L105.3 157.35L106.2 156.1L107.35 155.05L108.7 154.2L110.15 153.55L111.75 153.15L113.5 153L115.2 153.15L116.8 153.55L118.25 154.2L119.6 155.05L120.75 156.1L121.65 157.35L122.35 158.7L122.8 160.2L122.95 161.8Z" fill="url(#paint1_linear_1375_256)"/>
    <path opacity="0.34" d="M58.3498 158L58.2498 159.15L57.9498 160.25L57.3998 161.3L55.8998 162.95L53.7998 164.1L52.6498 164.4L51.3498 164.5L50.0498 164.4L48.8998 164.1L46.7998 162.95L45.2998 161.3L44.7498 160.25L44.4498 159.15L44.2998 158L44.4498 156.7L44.8498 155.5L45.4998 154.35L46.3998 153.35L47.4498 152.55L48.6498 151.95L49.9498 151.6L51.3498 151.45L52.7498 151.6L54.0498 151.95L55.2498 152.55L56.2998 153.35L57.1998 154.35L57.8498 155.5L58.2498 156.7L58.3498 158Z" fill="url(#paint2_linear_1375_256)"/>
    <path opacity="0.2" d="M149.549 166.95L149.399 168L148.949 168.95L148.299 169.7L147.449 170.35L146.449 170.75L145.349 170.85L144.199 170.75L143.199 170.35L142.349 169.7L141.699 168.95L141.299 168L141.149 166.95L141.299 165.9L141.699 165L142.349 164.2L143.199 163.6L144.199 163.2L145.349 163.05L146.449 163.2L147.449 163.6L148.299 164.2L148.949 165L149.399 165.9L149.549 166.95Z" fill="url(#paint3_linear_1375_256)"/>
    <path opacity="0.7" d="M38.236 128.982C48.5687 141.572 49.179 148.239 40.067 148.983L40.0662 159.088C40.0662 159.592 39.6565 160 39.1511 160H38.236C37.7306 160 37.3209 159.592 37.3209 159.088L37.3195 149.036C27.2637 148.664 27.5692 141.979 38.236 128.982Z" fill="url(#paint4_linear_1375_256)"/>
    <path opacity="0.7" d="M171.849 120.606C182.182 133.196 182.792 139.862 173.68 140.606L173.679 150.711C173.679 151.215 173.27 151.624 172.764 151.624H171.849C171.344 151.624 170.934 151.215 170.934 150.711L170.933 140.66C160.877 140.287 161.182 133.603 171.849 120.606Z" fill="url(#paint5_linear_1375_256)"/>
    <path opacity="0.7" d="M154.673 130.75C161.997 138.051 162.269 141.838 155.49 142.109L155.488 144.562C155.488 145.011 155.123 145.375 154.673 145.375C154.223 145.375 153.858 145.011 153.858 144.562L153.856 142.109C147.077 141.838 147.349 138.051 154.673 130.75Z" fill="url(#paint6_linear_1375_256)"/>
    <path opacity="0.412342" fill-rule="evenodd" clip-rule="evenodd" d="M62.5 143L89.5001 157H107.665L84 143H62.5Z" fill="url(#paint7_linear_1375_256)"/>
    <path d="M104.291 127.895H87.8193V155.263L91 157L104.291 155.263V127.895Z" fill="#234995"/>
    <path d="M107.291 129.895H90.8193V157.263H107.291V129.895Z" fill="url(#paint8_linear_1375_256)"/>
    <path d="M100.979 61.6493L103.545 63.1364L142.481 120.745C145.023 124.506 144.025 129.609 140.253 132.142C138.893 133.056 137.291 133.544 135.651 133.544H56.3864C51.8378 133.544 48.1504 129.868 48.1504 125.333C48.1504 123.625 48.6849 121.959 49.6795 120.568L90.1335 63.9828C92.6019 60.5301 97.3014 59.519 100.979 61.6493Z" fill="#2B4BA5"/>
    <path d="M107.053 65.3978L146.446 120.572C149.083 124.266 148.217 129.393 144.512 132.022C143.117 133.012 141.448 133.544 139.736 133.544H60.9499C56.4012 133.544 52.7139 129.868 52.7139 125.333C52.7139 123.627 53.2473 121.962 54.24 120.572L93.6329 65.3978C96.2705 61.7035 101.413 60.8403 105.119 63.4698C105.867 64.0005 106.52 64.6522 107.053 65.3978Z" fill="#4F83F1"/>
    <path fill-rule="evenodd" clip-rule="evenodd" d="M99.5126 116.21C102.292 116.21 104.546 118.457 104.546 121.228C104.546 123.999 102.292 126.245 99.5126 126.245C96.7329 126.245 94.4795 123.999 94.4795 121.228C94.4795 118.457 96.7329 116.21 99.5126 116.21ZM99.5126 81.5437C102.292 81.5437 104.546 83.7901 104.546 86.5612V103.895C104.546 106.666 102.292 108.912 99.5126 108.912C96.7329 108.912 94.4795 106.666 94.4795 103.895V86.5612C94.4795 83.7901 96.7329 81.5437 99.5126 81.5437Z" fill="url(#paint9_linear_1375_256)"/>
    <defs>
        <linearGradient id="paint0_linear_1375_256" x1="98.6536" y1="103.25" x2="98.6536" y2="185.512" gradientUnits="userSpaceOnUse">
            <stop stop-color="#3A6FDB"/>
            <stop offset="1" stop-color="#1D1F31" stop-opacity="0"/>
        </linearGradient>
        <linearGradient id="paint1_linear_1375_256" x1="113.436" y1="149.143" x2="117.256" y2="168.39" gradientUnits="userSpaceOnUse">
            <stop stop-color="#6394FF"/>
            <stop offset="1" stop-color="#14174E" stop-opacity="0"/>
        </linearGradient>
        <linearGradient id="paint2_linear_1375_256" x1="51.296" y1="148.59" x2="54.1283" y2="162.861" gradientUnits="userSpaceOnUse">
            <stop stop-color="#6394FF"/>
            <stop offset="1" stop-color="#14174E" stop-opacity="0"/>
        </linearGradient>
        <linearGradient id="paint3_linear_1375_256" x1="145.332" y1="161.341" x2="147.025" y2="169.871" gradientUnits="userSpaceOnUse">
            <stop stop-color="#6394FF"/>
            <stop offset="1" stop-color="#14174E" stop-opacity="0"/>
        </linearGradient>
        <linearGradient id="paint4_linear_1375_256" x1="38.236" y1="128.982" x2="38.236" y2="160" gradientUnits="userSpaceOnUse">
            <stop stop-color="#4F83F1"/>
            <stop offset="1" stop-color="#3465CA"/>
        </linearGradient>
        <linearGradient id="paint5_linear_1375_256" x1="171.849" y1="120.606" x2="171.849" y2="151.624" gradientUnits="userSpaceOnUse">
            <stop stop-color="#4F83F1"/>
            <stop offset="1" stop-color="#3465CA"/>
        </linearGradient>
        <linearGradient id="paint6_linear_1375_256" x1="154.673" y1="130.75" x2="154.673" y2="145.375" gradientUnits="userSpaceOnUse">
            <stop stop-color="#4F83F1"/>
            <stop offset="1" stop-color="#3465CA"/>
        </linearGradient>
        <linearGradient id="paint7_linear_1375_256" x1="99" y1="157" x2="80" y2="120.5" gradientUnits="userSpaceOnUse">
            <stop stop-color="#4F83F1"/>
            <stop offset="1" stop-color="#101D3F" stop-opacity="0"/>
        </linearGradient>
        <linearGradient id="paint8_linear_1375_256" x1="99" y1="154.5" x2="99" y2="119.5" gradientUnits="userSpaceOnUse">
            <stop stop-color="#3465CA"/>
            <stop offset="1" stop-color="#2F5BB5"/>
        </linearGradient>
        <linearGradient id="paint9_linear_1375_256" x1="99.5126" y1="81.5437" x2="99.5126" y2="126.245" gradientUnits="userSpaceOnUse">
            <stop stop-color="#E8EFFF"/>
            <stop offset="1" stop-color="#C0D4FF"/>
        </linearGradient>
    </defs>
</svg>
