<svg width="200" height="200" viewBox="0 0 200 200" fill="none" xmlns="http://www.w3.org/2000/svg">
    <path opacity="0.734156" d="M3.75 197.15L3.95 192.2L4.4 187.35L5.15 182.65L6.15 178L7.45 173.45L8.95 169L10.7 164.6L12.65 160.35L14.9 156.25L17.3 152.2L19.95 148.35L22.8 144.6L25.8 141L29.05 137.55L32.5 134.25L36.05 131.1L39.8 128.15L43.7 125.4L47.8 122.8L52 120.35L56.35 118.15L60.8 116.15L65.4 114.35L70.15 112.8L75.05 111.4L79.95 110.3L84.95 109.4L90.05 108.75L95.25 108.4L100.6 108.25L106.35 108.4L111.95 108.85L117.45 109.6L122.85 110.6L128.15 111.95L133.35 113.5L138.35 115.3L143.2 117.4L148 119.7L152.6 122.25L157 125L161.2 128L165.3 131.2L169.15 134.6L172.8 138.15L176.2 141.95L179.45 145.9L182.4 149.95L185.15 154.2L187.65 158.65L189.9 163.2L191.85 167.85L193.55 172.65L194.95 177.55L195.85 181.55L196.55 185.6L197.05 189.75L197.4 193.9L197.5 198.2" fill="url(#paint0_linear_1143_386)"/>
    <path d="M108.5 176L62.5 143L130.5 141.5L181.5 176H108.5Z" fill="url(#paint1_linear_1143_386)"/>
    <path opacity="0.32" d="M119.15 163L119 164.6L118.55 166.05L117.85 167.45L116.95 168.65L115.8 169.7L114.45 170.6L113 171.25L111.4 171.65L109.7 171.8L107.95 171.65L106.35 171.25L104.9 170.6L103.55 169.7L102.4 168.65L101.5 167.45L100.8 166.05L100.35 164.6L100.2 163L100.35 161.4L100.8 159.9L101.5 158.55L102.4 157.3L103.55 156.25L104.9 155.4L106.35 154.75L107.95 154.35L109.7 154.2L111.4 154.35L113 154.75L114.45 155.4L115.8 156.25L116.95 157.3L117.85 158.55L118.55 159.9L119 161.4L119.15 163Z" fill="url(#paint2_linear_1143_386)"/>
    <path d="M88.2497 115.45L90.3497 115.1L91.2997 114.75L92.8497 113.55L93.8997 112L94.1497 111.15L94.2497 110.2L93.8997 108.45L86.1497 109.25L82.2997 109.85L82.3997 111.15L82.6497 112L83.6997 113.55L85.2497 114.75L86.1497 115.1L88.2497 115.45Z" fill="#CECECE"/>
    <path d="M53.1997 135L55.0997 134.85L56.9497 134.5L58.6497 133.95L60.2997 133.2L61.7997 132.25L63.1497 131.15L64.3497 129.9L65.3497 128.5L66.1497 127L66.7497 125.4L67.1497 123.7L67.2497 121.9L67.0997 119.95L66.6497 118.05L65.8997 116.25L64.8997 114.6L60.5497 116.25L56.2997 118.05L52.1497 120.1L48.0997 122.3L44.1997 124.7L40.3497 127.3L41.1997 128.75L42.1997 130.1L43.3997 131.3L44.6997 132.35L46.1997 133.25L47.7997 134L49.4997 134.55L51.2997 134.85L53.1997 135Z" fill="url(#paint3_linear_1143_386)"/>
    <path opacity="0.34" d="M58.3497 163L58.2497 164.15L57.9497 165.25L57.3997 166.3L55.8997 167.95L53.7997 169.1L52.6497 169.4L51.3497 169.5L50.0497 169.4L48.8997 169.1L46.7997 167.95L45.2997 166.3L44.7497 165.25L44.4497 164.15L44.2997 163L44.4497 161.7L44.8497 160.5L45.4997 159.35L46.3997 158.35L47.4497 157.55L48.6497 156.95L49.9497 156.6L51.3497 156.45L52.7497 156.6L54.0497 156.95L55.2497 157.55L56.2997 158.35L57.1997 159.35L57.8497 160.5L58.2497 161.7L58.3497 163Z" fill="url(#paint4_linear_1143_386)"/>
    <path opacity="0.2" d="M149.55 171.95L149.4 173L148.95 173.95L148.3 174.7L147.45 175.35L146.45 175.75L145.35 175.85L144.2 175.75L143.2 175.35L142.35 174.7L141.7 173.95L141.3 173L141.15 171.95L141.3 170.9L141.7 170L142.35 169.2L143.2 168.6L144.2 168.2L145.35 168.05L146.45 168.2L147.45 168.6L148.3 169.2L148.95 170L149.4 170.9L149.55 171.95Z" fill="url(#paint5_linear_1143_386)"/>
    <path opacity="0.4" d="M157.75 124.95L157.85 123.65L157.45 122.95L156.95 122.7H156.35L155.8 122.95L155.35 123.3L155.1 123.85L154.4 128.6L153.7 129.75L152.95 130.45V130.95L153.2 131.45L153.65 132.05L155.05 132.9L155.95 133.05L157 132.9L158.3 132.4L159.05 131.85L159.6 131.15L159.85 130.3L159.9 128.35L159.55 127.4L158.05 126.6L157.7 125.55L157.75 124.95Z" fill="url(#paint6_linear_1143_386)"/>
    <path d="M156.3 131L157.15 130.1L157.6 128.95L157.25 130.2L156.4 131.2L156.3 131Z" fill="#9ABAFF"/>
    <path d="M156.35 127.2L156.05 129.2L156.75 132.25L156.6 135.3H156.35L156.5 132.25L155.95 129.2L156.05 128.15L156.35 127.15V127.2Z" fill="#9ABAFF"/>
    <path opacity="0.8" d="M168.75 129L168.85 127.35L168.7 126.85L168.35 126.4L167.75 126.15H166.95L166.25 126.45L165.7 126.95L165.35 127.65L165.1 128.8L164.5 133.6L164.15 134.45L163.65 135.1L162.7 135.85L162.6 136.15L162.95 137.25L163.5 138L164.3 138.6L166.05 139.25L167.8 139.1L168.95 138.65L170.4 137.7L170.9 137.1L171.4 135.75L171.45 133.25L171 132.05L169.45 131.35L169.1 131.05L168.8 130.5L168.65 129.75L168.75 129Z" fill="url(#paint7_linear_1143_386)"/>
    <path d="M166.9 136.65L168 135.55L168.55 134.05L168.15 135.6L167.1 136.9L166.9 136.65Z" fill="#9ABAFF"/>
    <path d="M62 77H134V142.32C134 145.457 131.697 148 128.857 148H67.1429C64.3025 148 62 145.457 62 142.32L62 77Z" fill="#4F83F1"/>
    <path opacity="0.06" d="M124.409 89H72.5909C71.16 89 70 89.2487 70 89.5556V93.4444C70 93.7513 71.16 94 72.5909 94H124.409C125.84 94 127 93.7513 127 93.4444V89.5556C127 89.2487 125.84 89 124.409 89Z" fill="#1D1F31"/>
    <path opacity="0.06" d="M115.818 100H72.1818C70.9768 100 70 100.249 70 100.556V104.444C70 104.751 70.9768 105 72.1818 105H115.818C117.023 105 118 104.751 118 104.444V100.556C118 100.249 117.023 100 115.818 100Z" fill="#1D1F31"/>
    <path opacity="0.06" d="M103.409 114H71.5909C70.7123 114 70 114.249 70 114.556V118.444C70 118.751 70.7123 119 71.5909 119H103.409C104.288 119 105 118.751 105 118.444V114.556C105 114.249 104.288 114 103.409 114Z" fill="#1D1F31"/>
    <path d="M67.1694 69.3789H129.202C132.057 69.3789 134.372 71.6933 134.372 74.5483V81.01H62V74.5483C62 71.6933 64.3144 69.3789 67.1694 69.3789Z" fill="#84A9F6"/>
    <path opacity="0.06" d="M71.6004 133H112.956C113.771 133 114.433 133.661 114.433 134.477C114.433 135.293 113.771 135.954 112.956 135.954H71.6004C70.7847 135.954 70.1234 135.293 70.1234 134.477C70.1234 133.661 70.7847 133 71.6004 133Z" fill="#1D1F31"/>
    <path d="M131.659 66.1534L136.303 59.3983C136.632 58.9205 136.669 58.3 136.399 57.7867C136.131 57.2781 135.592 56.9716 135.019 57.0021L134.03 57.0545C132.933 57.1127 132.058 57.991 132.005 59.0878L131.659 66.1534Z" fill="#4F83F1"/>
    <path d="M133.577 67.294L140.013 66.1064C140.47 66.0223 140.841 65.6921 140.979 65.249C141.116 64.8097 140.984 64.3312 140.642 64.0233L140.054 63.493C139.402 62.9051 138.41 62.9068 137.76 63.4971L133.577 67.294Z" fill="#4F83F1"/>
    <path d="M130.471 64.9611L129.988 59.1724C129.954 58.7634 129.696 58.4069 129.318 58.2467C128.944 58.088 128.511 58.1621 128.211 58.4364L127.692 58.9102C127.117 59.4353 127.032 60.31 127.495 60.936L130.471 64.9611Z" fill="#4F83F1"/>
    <path d="M166.95 131.85L166.65 133.1L166.6 134.4L167.3 136.9L167.5 138.25L167.25 142.15L166.95 142.2L166.9 140.85L167.15 138.3L166.4 134.45L166.5 133.1L166.9 131.85H166.95Z" fill="#9ABAFF"/>
    <path opacity="0.8" d="M27.55 134L27.8 132.55L27.75 131.7L27.2 130.55L26.2 130.05L25.45 130L24.75 130.1L23.6 130.85L22.85 132.05L22.55 133.65L21.7 140.4L20.85 142L19.15 143.5L19 143.9L19.1 144.5L19.5 145.45L20.3 146.45L21.85 147.55L23.85 148.2H25L26.25 148L27.9 147.4L29.05 146.75L29.9 146.1L30.55 145.25L31 144.35L31.25 143.4L31.4 141.8L31.3 139.9L31.05 138.8L30.75 138.25L30.25 137.9L28.55 137.25L28.1 136.85L27.65 136.05L27.45 135.05L27.55 134Z" fill="url(#paint8_linear_1143_386)"/>
    <path d="M25.0005 144.6L25.8505 143.95L26.5005 143.1L27.0005 142.1L27.3005 141L26.7005 143.2L26.1005 144.2L25.2505 145L25.0005 144.6Z" fill="#9ABAFF"/>
    <path d="M25.0498 137.95L24.5498 140.3V141.5L24.6498 142.4L25.5498 145L25.7998 146.85L25.4498 152.25L25.0498 152.3L24.9998 150.45L25.2998 146.85L25.0998 145.1L24.3498 142.45L24.2998 141.55L24.5998 139.1L24.9998 137.95H25.0498Z" fill="#9ABAFF"/>
    <path d="M45.0318 76.2523L45.05 76.25H45L45.0318 76.2523Z" fill="url(#paint9_linear_1143_386)"/>
    <path d="M47.9617 78.1404L47.85 77.85L46.95 76.85L45.7 76.3L45.0318 76.2523L44.25 76.35L44.15 75.35L43.8 74.6L43.3 73.95L42.65 73.45L41.9 73.1L41 73L40.15 73.1L39.35 73.45L38.7 73.95L38.2 74.6L37.9 75.35L37.75 76.3L36.95 76.5L35.7 77.45L35.05 78.85L35 79.7L35.15 80.55L36 81.85L37.35 82.6L38.2 82.7L39.05 82.6L39.85 82.3L41.2 82.6L42.15 82.45L43 82L44.25 82.65H45.0304L45.3504 83.05L45.9004 83.45L46.6004 83.6L47.5004 83.35L48.4004 83.5L49.3004 83.2L49.8504 83.45L50.4504 83.6L51.1504 83.45L51.7504 83.05L52.1504 82.45L52.3004 81.75L52.1504 81L51.7504 80.45L51.1504 80.05L50.4504 79.9V79.95L49.9504 80L49.8504 79.2L49.4504 78.65L48.9004 78.25L48.1504 78.1L47.9617 78.1404Z" fill="url(#paint10_linear_1143_386)"/>
    <path d="M152.25 102.7L153.4 102.55L154.4 102.65L155.35 103L156.2 103.5L156.9 104.15L157.5 104.95L157.9 105.85L158.1 106.85L158.092 107.002L158.2 107.15L158.3 107.9L158.85 107.85L159.45 107.95L160.35 108.65L160.75 109.8L160.35 110.9L159.35 111.55L158.2 111.5L157.65 111.2L156.6 111.55L155.8 111.35L155.392 111.479L155.15 111.6L154.2 111.9L153.25 111.95L152.25 111.8L151.35 111.5L150.5 110.95L149.4 111.5L148.25 111.75L147.05 111.65L145.9 111.3L144.15 111.9L142.35 111.8L140.7 111L140 110.35L139.1 108.8L138.85 107L139 106.05L139.8 104.4L141.15 103.2L142.9 102.6L142.95 101.7L143.5 100.2L144.25 99.25L145.2 98.5L145.95 98.15L147.6 97.85L148.45 97.95L149.95 98.5L150.9 99.25L151.65 100.2L152.2 101.7L152.25 102.7Z" fill="url(#paint11_linear_1143_386)"/>
    <path d="M98.4405 87.3529L98.8326 87.3398L99.3031 87.4444L98.1922 87.0653L97.6825 87L97.1858 87.0653L96.8199 87.2091L96.467 87.4444L96.0226 87.928L74.2875 125.896L74.1046 126.314L74.0131 126.706L74 127.111L74.0653 127.503L74.183 127.869L74.379 128.196L74.6404 128.484L74.941 128.719L75.2939 128.889L76.2611 129.229L75.9082 129.059L75.6076 128.823L75.3462 128.536L75.1501 128.209L75.0325 127.843L74.9672 127.451L74.9802 127.046L75.0717 126.641L75.2547 126.236L96.9114 88.3985L97.2512 87.941L97.591 87.6666L97.9962 87.4574L98.4405 87.3529Z" fill="#2D5BBA"/>
    <path d="M110.413 107.062L120.476 125.778L120.62 126.131L120.699 126.484L120.725 126.837L120.672 127.19L120.581 127.529L120.424 127.843L120.228 128.144L119.993 128.392L119.705 128.601L119.405 128.758L119.052 128.863L118.686 128.902L76.9147 129.32L76.5357 129.294L76.1959 129.202L75.8952 129.046L75.6208 128.836L75.3986 128.588L75.2025 128.301L75.0719 127.987L74.9804 127.66L74.9542 127.307L74.9934 126.954L75.0849 126.588L75.2548 126.236L96.9115 88.3854L97.2513 87.928L97.5389 87.6927L97.8395 87.5228L98.1531 87.4052L98.4929 87.3398H98.8197L99.1595 87.3921L99.5124 87.5228L99.8391 87.7319L100.205 88.1109L110.413 107.062Z" fill="#C6D7FA"/>
    <path d="M98.5775 100.124L97.9353 100L97.3036 100.021L96.9722 100.083L96.6097 100.207L96.0297 100.507L95.4808 100.974L95.284 101.212L95.0251 101.595L94.7454 102.227L94.6004 102.921L94.5901 103.242L95.9675 116.788L96.1022 117.089L96.33 117.296L97.2518 117.607L96.9825 117.451L96.8789 117.337L96.7443 117.037L95.3565 103.49L95.3772 103.169L95.4911 102.548L95.719 101.978L96.0504 101.46L96.3611 101.108L96.6718 100.849L97.0757 100.59L97.3554 100.456L97.7386 100.331L98.2253 100.249H98.7121L99.3439 100.373L98.5775 100.124Z" fill="#2D5BBA"/>
    <path d="M98.3703 100.238L98.7845 100.259L99.1781 100.321L99.551 100.445L99.9031 100.621L100.224 100.828L100.514 101.087L100.773 101.388L100.991 101.709L101.167 102.071L101.301 102.444L101.384 102.848L101.415 103.283L100.131 116.964L100.058 117.161L99.9342 117.327L99.7788 117.451L99.5924 117.544L99.3956 117.575L97.5003 117.648L97.2932 117.627L97.1067 117.544L96.9514 117.43L96.8271 117.265L96.7546 117.078L95.3564 103.49L95.3875 103.065L95.4704 102.651L95.5947 102.268L95.7707 101.895L95.9882 101.553L96.2368 101.243L96.5268 100.963L96.8478 100.725L97.2 100.528L97.5728 100.383L97.956 100.279L98.3703 100.238Z" fill="#4F83F1"/>
    <path d="M96.3093 120.796L96.4025 120.268L96.5682 119.864L96.8685 119.419L97.2414 119.067L97.6246 118.829L98.1217 118.673L98.4531 118.632L98.8156 118.653L99.147 118.725L98.0389 118.404L97.5728 118.394L97.0653 118.497L96.5578 118.746L96.1746 119.088L95.8743 119.481L95.6671 119.926L95.5532 120.475L95.5636 121.024L95.6257 121.335L95.8743 121.884L96.2471 122.329L96.475 122.516L97.0032 122.775L97.7799 123.023L97.5003 122.909L97.2517 122.764L97.0239 122.578L96.6407 122.132L96.4025 121.584L96.33 121.273L96.3093 120.796Z" fill="#2D5BBA"/>
    <path d="M98.4532 118.632L98.7432 118.642L99.2921 118.777L99.5406 118.901L99.841 119.108L100.1 119.367L100.307 119.678L100.442 119.926L100.587 120.486L100.607 120.796L100.576 121.2L100.483 121.584L100.317 121.936L100.11 122.257L99.8514 122.536L99.551 122.764L99.0435 123.013L98.7639 123.075L98.4635 123.116L97.8939 123.054L97.3761 122.847L97.0757 122.63L96.8168 122.371L96.6097 122.07L96.475 121.811L96.33 121.252L96.3093 120.941L96.3404 120.538L96.4336 120.154L96.5993 119.802L96.8065 119.481L97.0654 119.212L97.3657 118.974L97.6143 118.839L98.1528 118.663L98.4532 118.632Z" fill="#4F83F1"/>
    <defs>
        <linearGradient id="paint0_linear_1143_386" x1="98.6536" y1="108.25" x2="98.6536" y2="190.513" gradientUnits="userSpaceOnUse">
            <stop stop-color="#3A6FDB"/>
            <stop offset="1" stop-color="#1D1F31" stop-opacity="0"/>
        </linearGradient>
        <linearGradient id="paint1_linear_1143_386" x1="119.25" y1="141.5" x2="119.25" y2="187" gradientUnits="userSpaceOnUse">
            <stop stop-color="#84A9F6" stop-opacity="0.14"/>
            <stop offset="1" stop-color="#20263E" stop-opacity="0"/>
        </linearGradient>
        <linearGradient id="paint2_linear_1143_386" x1="109.636" y1="150.343" x2="113.455" y2="169.59" gradientUnits="userSpaceOnUse">
            <stop stop-color="#6394FF"/>
            <stop offset="1" stop-color="#14174E" stop-opacity="0"/>
        </linearGradient>
        <linearGradient id="paint3_linear_1143_386" x1="56.2499" y1="117.596" x2="59.7408" y2="132.671" gradientUnits="userSpaceOnUse">
            <stop stop-color="#6394FF"/>
            <stop offset="1" stop-color="#14174E" stop-opacity="0"/>
        </linearGradient>
        <linearGradient id="paint4_linear_1143_386" x1="51.2958" y1="153.591" x2="54.1281" y2="167.861" gradientUnits="userSpaceOnUse">
            <stop stop-color="#6394FF"/>
            <stop offset="1" stop-color="#14174E" stop-opacity="0"/>
        </linearGradient>
        <linearGradient id="paint5_linear_1143_386" x1="145.333" y1="166.341" x2="147.025" y2="174.871" gradientUnits="userSpaceOnUse">
            <stop stop-color="#6394FF"/>
            <stop offset="1" stop-color="#14174E" stop-opacity="0"/>
        </linearGradient>
        <linearGradient id="paint6_linear_1143_386" x1="156.425" y1="122.7" x2="156.425" y2="133.05" gradientUnits="userSpaceOnUse">
            <stop stop-color="#4F83F1"/>
            <stop offset="1" stop-color="#3465CA"/>
        </linearGradient>
        <linearGradient id="paint7_linear_1143_386" x1="167.025" y1="126.15" x2="167.025" y2="139.25" gradientUnits="userSpaceOnUse">
            <stop stop-color="#4F83F1"/>
            <stop offset="1" stop-color="#3465CA"/>
        </linearGradient>
        <linearGradient id="paint8_linear_1143_386" x1="25.2" y1="130" x2="25.2" y2="148.2" gradientUnits="userSpaceOnUse">
            <stop stop-color="#4F83F1"/>
            <stop offset="1" stop-color="#3465CA"/>
        </linearGradient>
        <linearGradient id="paint9_linear_1143_386" x1="43.6147" y1="70.6773" x2="45.1654" y2="82.5223" gradientUnits="userSpaceOnUse">
            <stop stop-color="#6394FF"/>
            <stop offset="1" stop-color="#14174E" stop-opacity="0"/>
        </linearGradient>
        <linearGradient id="paint10_linear_1143_386" x1="43.6147" y1="70.6773" x2="45.1654" y2="82.5223" gradientUnits="userSpaceOnUse">
            <stop stop-color="#6394FF"/>
            <stop offset="1" stop-color="#14174E" stop-opacity="0"/>
        </linearGradient>
        <linearGradient id="paint11_linear_1143_386" x1="149.755" y1="94.7603" x2="151.919" y2="110.489" gradientUnits="userSpaceOnUse">
            <stop stop-color="#6394FF"/>
            <stop offset="1" stop-color="#14174E" stop-opacity="0"/>
        </linearGradient>
    </defs>
</svg>
