<svg width="1440" height="1063" viewBox="0 0 1440 1063" fill="none" xmlns="http://www.w3.org/2000/svg">
    <g clip-path="url(#clip0_34_8)">
        <g opacity="0.3" filter="url(#filter0_f_34_8)">
            <path d="M708.5 863C910.36 863 1074 726.671 1074 558.5C1074 390.329 910.36 254 708.5 254C506.64 254 343 390.329 343 558.5C343 726.671 506.64 863 708.5 863Z" fill="url(#paint0_linear_34_8)"/>
        </g>
        <g style="mix-blend-mode:lighten" opacity="0.6" filter="url(#filter1_f_34_8)">
            <path d="M720.5 573C800.305 573 865 550.39 865 522.5C865 494.61 800.305 472 720.5 472C640.695 472 576 494.61 576 522.5C576 550.39 640.695 573 720.5 573Z" fill="white"/>
        </g>
        <path opacity="0.08" d="M140.037 632.543C138.688 616.366 138 600.002 138 583.477C138 261.784 398.794 1 720.5 1C1042.21 1 1303 261.784 1303 583.477C1303 600.498 1302.27 617.349 1300.84 634" stroke="#BFC6F4" stroke-width="2"/>
        <path opacity="0.2" d="M1222 584C1222 523.203 1211.2 464.929 1191.42 410.997M720.483 82C645.795 82 574.921 98.3419 511.234 127.648M323.374 277.357C280.184 333.315 248.535 398.654 232 469.799" stroke="#BFC6F4" stroke-width="2"/>
        <path d="M1440 688.793V1031H0V671.467C170.2 578.139 422.901 519 705 519C1004.18 519 1270.3 585.518 1440 688.793Z" fill="url(#paint1_linear_34_8)"/>
        <path d="M0 671.861C170.14 578.294 422.826 519 704.922 519C1004.2 519 1270.37 585.737 1440 689.332" stroke="url(#paint2_linear_34_8)" stroke-width="4"/>
    </g>
    <defs>
        <filter id="filter0_f_34_8" x="143" y="54" width="1131" height="1009" filterUnits="userSpaceOnUse" color-interpolation-filters="sRGB">
            <feFlood flood-opacity="0" result="BackgroundImageFix"/>
            <feBlend mode="normal" in="SourceGraphic" in2="BackgroundImageFix" result="shape"/>
            <feGaussianBlur stdDeviation="100" result="effect1_foregroundBlur_34_8"/>
        </filter>
        <filter id="filter1_f_34_8" x="416" y="312" width="609" height="421" filterUnits="userSpaceOnUse" color-interpolation-filters="sRGB">
            <feFlood flood-opacity="0" result="BackgroundImageFix"/>
            <feBlend mode="normal" in="SourceGraphic" in2="BackgroundImageFix" result="shape"/>
            <feGaussianBlur stdDeviation="80" result="effect1_foregroundBlur_34_8"/>
        </filter>
        <linearGradient id="paint0_linear_34_8" x1="368" y1="333.562" x2="1082.46" y2="544.875" gradientUnits="userSpaceOnUse">
            <stop stop-color="#FF5F4A"/>
            <stop offset="0.246695" stop-color="#F8E116"/>
            <stop offset="0.504808" stop-color="#18D737"/>
            <stop offset="0.762921" stop-color="#3FE2E3"/>
            <stop offset="1" stop-color="#427DF1"/>
        </linearGradient>
        <linearGradient id="paint1_linear_34_8" x1="720" y1="519" x2="720" y2="775" gradientUnits="userSpaceOnUse">
            <stop stop-color="#2A2F4F" stop-opacity="0.6"/>
            <stop offset="1" stop-color="#11131F"/>
        </linearGradient>
        <linearGradient id="paint2_linear_34_8" x1="21.1701" y1="632.919" x2="1374.58" y2="1030.43" gradientUnits="userSpaceOnUse">
            <stop stop-color="#FF5F4A"/>
            <stop offset="0.246695" stop-color="#F8E116"/>
            <stop offset="0.504808" stop-color="#18D737"/>
            <stop offset="0.762921" stop-color="#3FE2E3"/>
            <stop offset="0.973693" stop-color="#2164E5"/>
        </linearGradient>
        <clipPath id="clip0_34_8">
            <rect width="1440" height="1063" fill="white"/>
        </clipPath>
    </defs>
</svg>
