<svg width="36" height="36" viewBox="0 0 36 36" fill="none" xmlns="http://www.w3.org/2000/svg">
    <circle cx="18" cy="18" r="17.5" stroke="currentColor"/>
    <path d="M25.222 10.9614C25.428 10.9614 25.6255 11.0432 25.7711 11.1888C25.9167 11.3345 25.9985 11.532 25.9985 11.7379L26 21.0537C25.9991 21.259 25.9169 21.4556 25.7714 21.6004C25.6259 21.7453 25.429 21.8266 25.2237 21.8265C25.0184 21.8265 24.8215 21.7452 24.676 21.6003C24.5306 21.4554 24.4484 21.2588 24.4476 21.0535L24.4459 11.7375C24.446 11.5317 24.5278 11.3343 24.6733 11.1888C24.8189 11.0433 25.0162 10.9615 25.222 10.9614ZM15.9062 10.9599L25.222 10.9614C25.428 10.9614 25.6255 11.0432 25.7711 11.1888C25.9167 11.3345 25.9985 11.532 25.9985 11.7379C25.9985 11.8398 25.9785 11.9404 25.9395 12.0346C25.9005 12.1288 25.8433 12.2144 25.7713 12.2865C25.6257 12.4321 25.4283 12.5139 25.2224 12.514L15.9067 12.5127C15.7013 12.512 15.5045 12.43 15.3595 12.2845C15.2144 12.139 15.133 11.942 15.1329 11.7366C15.1328 11.5312 15.2142 11.3341 15.3591 11.1885C15.504 11.0429 15.7008 10.9607 15.9062 10.9599ZM10.5 24.7442L24.5665 11.3095C24.6161 11.2598 24.675 11.2205 24.7399 11.1936C24.8047 11.1667 24.8742 11.1529 24.9444 11.1529C25.0146 11.1529 25.0841 11.1667 25.1489 11.1936C25.2138 11.2205 25.2727 11.2598 25.3223 11.3095L25.6595 11.6466C25.7091 11.6963 25.7485 11.7552 25.7753 11.82C25.8022 11.8849 25.816 11.9544 25.816 12.0245C25.816 12.0947 25.8022 12.1642 25.7753 12.2291C25.7485 12.2939 25.7091 12.3528 25.6595 12.4025L11.593 25.8372C11.4928 25.9374 11.3568 25.9937 11.2151 25.9937C11.0733 25.9937 10.9374 25.9374 10.8372 25.8372L10.5 25.5C10.3998 25.3998 10.3435 25.2639 10.3435 25.1221C10.3435 24.9804 10.3998 24.8444 10.5 24.7442Z" fill="currentColor"/>
</svg>
