<svg width="24" height="24" viewBox="0 0 24 24" fill="none" xmlns="http://www.w3.org/2000/svg">
    <g clip-path="url(#clip0_1336_190)">
        <path d="M3.86827 20.1317C1.7116 17.9751 0.5 15.05 0.5 12C0.5 8.95001 1.7116 6.02494 3.86827 3.86827C6.02494 1.7116 8.95001 0.5 12 0.5C15.05 0.5 17.9751 1.7116 20.1317 3.86827C22.2884 6.02494 23.5 8.95001 23.5 12C23.5 15.05 22.2884 17.9751 20.1317 20.1317C17.9751 22.2884 15.05 23.5 12 23.5C8.95001 23.5 6.02494 22.2884 3.86827 20.1317Z" stroke="currentColor"/>
        <path d="M6.17458 11.4266C6.29634 10.1955 6.80475 9.03462 7.62692 8.11032C8.44909 7.18602 9.54281 6.54577 10.7513 6.28136C9.63508 7.77526 8.9819 9.56392 8.87274 11.4256H6.20621L6.17359 11.4275L6.17458 11.4266ZM13.2487 6.28136C14.4569 6.54576 15.5504 7.1859 16.3724 8.11002C17.1944 9.03414 17.7027 10.1948 17.8244 11.4256H15.1273C15.0181 9.56392 14.3649 7.77526 13.2487 6.28136ZM19 12C19 10.1435 18.2625 8.36301 16.9497 7.05025C15.637 5.7375 13.8565 5 12 5C10.1435 5 8.36301 5.7375 7.05025 7.05025C5.7375 8.36301 5 10.1435 5 12C5 13.8565 5.7375 15.637 7.05025 16.9497C8.36301 18.2625 10.1435 19 12 19C13.8565 19 15.637 18.2625 16.9497 16.9497C18.2625 15.637 19 13.8565 19 12ZM10.7513 17.7186C9.54281 17.4542 8.44909 16.814 7.62692 15.8897C6.80475 14.9654 6.29634 13.8045 6.17458 12.5734C6.1884 12.5743 6.20225 12.5746 6.2161 12.5744H8.87274C8.98165 14.4364 9.63484 16.2255 10.7513 17.7196V17.7186ZM13.2487 17.7186C14.3651 16.2245 15.0183 14.4354 15.1273 12.5734H17.8244C17.7027 13.8044 17.1945 14.9651 16.3725 15.8894C15.5505 16.8137 14.457 17.454 13.2487 17.7186ZM12 17.4448C10.8355 16.0751 10.1422 14.3673 10.0226 12.5734H13.9774C13.8578 14.3673 13.1645 16.0751 12 17.4448ZM13.9774 11.4256H10.0226C10.1423 9.63175 10.8355 7.92394 12 6.55424C13.1645 7.92394 13.8577 9.63175 13.9774 11.4256Z" fill="currentColor"/>
    </g>
    <defs>
        <clipPath id="clip0_1336_190">
            <rect width="24" height="24" fill="white"/>
        </clipPath>
    </defs>
</svg>
