<svg width="18" height="18" viewBox="0 0 18 18" fill="none" xmlns="http://www.w3.org/2000/svg">
    <path d="M17.9925 15.7592C17.9925 16.999 16.9921 17.9998 15.7528 17.9998H2.23973C1.00041 17.9998 0 16.999 0 15.7592V2.24064C0 1.00082 1.00788 0 2.23973 0H15.7528C16.9921 0 17.9925 1.00082 17.9925 2.24064V15.7592Z" fill="#2E3349"/>
    <path d="M0 9.02197V15.7588C0 16.9986 1.00788 17.9994 2.24719 17.9994H15.7528C16.9921 17.9994 18 16.9986 18 15.7588V9.02197H0Z" fill="url(#paint0_linear_496_3686)"/>
    <path opacity="0.3" d="M15.8579 15.5941C15.8579 15.8703 15.6712 16.0945 15.4398 16.0945H13.1105C12.879 16.0945 12.6924 15.8703 12.6924 15.5941V2.40413C12.6924 2.12779 12.879 1.90372 13.1105 1.90372H15.4398C15.6712 1.90372 15.8579 2.12779 15.8579 2.40413V15.5941Z" fill="white"/>
    <defs>
        <linearGradient id="paint0_linear_496_3686" x1="8.99968" y1="5.1109" x2="8.99968" y2="22.4754" gradientUnits="userSpaceOnUse">
            <stop stop-color="#AE61FF"/>
            <stop offset="1" stop-color="#13EFD8"/>
        </linearGradient>
    </defs>
</svg>
