<svg viewBox="0 0 16 16" fill="none" xmlns="http://www.w3.org/2000/svg">
    <path d="M8 1.5C11.59 1.5 14.5 4.41 14.5 8C14.5 11.59 11.59 14.5 8 14.5C4.41 14.5 1.5 11.59 1.5 8C1.5 4.41 4.41 1.5 8 1.5ZM8 2.5C4.96233 2.5 2.5 4.96233 2.5 8C2.5 11.0377 4.96233 13.5 8 13.5C11.0377 13.5 13.5 11.0377 13.5 8C13.5 4.96233 11.0377 2.5 8 2.5ZM8.5 4.019L8.50033 5.19833C9.652 5.34133 10.4707 5.96167 10.5103 6.84833L10.512 6.91667H9.512C9.512 6.53133 8.94533 6.16667 7.97867 6.16667C6.99567 6.16667 6.44533 6.47467 6.44533 6.91667C6.44533 7.31333 6.92567 7.64467 7.882 7.66533L7.97867 7.66667C9.486 7.66667 10.512 8.347 10.512 9.41667C10.512 10.4247 9.68867 11.0103 8.50033 11.1393L8.5 12.3353H7.5V11.14C6.32633 11.0067 5.48733 10.3817 5.447 9.48433L5.44567 9.416H6.44567C6.44567 9.80133 7.013 10.1663 7.979 10.1663C8.96167 10.1663 9.51233 9.858 9.51233 9.41633C9.51233 9.01967 9.03233 8.68833 8.076 8.66733L7.88133 8.66533C6.42733 8.63633 5.44567 7.96233 5.44567 6.91633C5.44567 5.896 6.289 5.30867 7.50033 5.189L7.5 4.01867H8.5V4.019Z" fill="currentColor"/>
</svg>
