<svg width="200" height="200" viewBox="0 0 200 200" fill="none" xmlns="http://www.w3.org/2000/svg">
    <path opacity="0.734156" d="M194.741 182.87C170.933 156.252 137.288 139.655 100 139.655C62.7121 139.655 29.0672 156.252 5.25879 182.87H194.741Z" fill="url(#paint0_linear_1630_500)"/>
    <path opacity="0.734156" d="M99.9996 178.438C132.128 178.438 158.174 170.004 158.174 159.601C158.174 149.197 132.128 140.763 99.9996 140.763C67.8708 140.763 41.8252 149.197 41.8252 159.601C41.8252 170.004 67.8708 178.438 99.9996 178.438Z" fill="url(#paint1_linear_1630_500)"/>
    <path fill-rule="evenodd" clip-rule="evenodd" d="M149.958 102.98C147.647 104.942 146.12 106.73 145.378 108.342C144.636 109.954 143.811 111.553 142.902 113.138C142.732 109.041 143.267 105.581 144.509 102.761C146.371 98.5304 151.1 94.6861 154.363 93.9164C156.539 93.4033 159.338 93.1467 162.761 93.1467C160.888 99.4671 158.497 103.792 155.586 106.121C152.676 108.45 148.818 110.438 144.013 112.084C144.978 109.809 145.84 108.169 146.597 107.164C147.355 106.16 148.475 104.766 149.958 102.98Z" fill="#3553A9"/>
    <path fill-rule="evenodd" clip-rule="evenodd" d="M56.8685 109.14C56.4756 108.728 56.1635 108.417 55.9323 108.207C55.7012 107.996 55.3112 107.659 54.7624 107.195C54.9918 106.107 55.0566 105.283 54.9567 104.726C54.8069 103.889 53.0065 100.176 49.5433 99.1747C46.0801 98.1738 38.4989 97.6127 37.586 100.922C36.6732 104.232 40.1628 106.611 43.4705 108.119C46.7783 109.627 50.9536 109.823 52.3596 109.403C53.2969 109.123 53.8281 108.761 53.9532 108.316L51.4425 106.83C51.0939 106.977 50.755 107.099 50.4258 107.195C49.9321 107.339 49.006 107.399 49.006 107.195C49.006 106.992 49.4816 106.969 50.0081 106.83C50.3592 106.737 50.7566 106.629 51.2005 106.507C50.5833 106.293 50.1212 106.117 49.8144 105.978C49.3541 105.77 48.5662 105.477 48.5662 105.205C48.5662 104.934 50.4258 105.537 50.4258 105.537C50.4258 105.537 48.8362 103.994 49.006 103.817C49.1759 103.641 50.9585 105.777 51.2005 105.877C51.4425 105.978 53.2277 106.907 53.643 107.195C53.8382 107.331 54.3742 107.637 55.1126 108.26C55.3182 108.433 55.6509 108.76 56.1108 109.241L56.8685 109.14Z" fill="#3553A9"/>
    <path fill-rule="evenodd" clip-rule="evenodd" d="M57.0078 140.88V142.577C56.2014 141.934 55.5191 141.491 54.9609 141.246C54.4027 141.002 53.72 140.796 52.9129 140.63C52.7727 143.305 51.0922 145.186 47.8714 146.273C43.0402 147.905 39.643 146.896 38.3811 146.273C37.5397 145.859 36.7461 145.195 36 144.282C37.3819 142.51 39.1391 140.995 41.2717 139.737C44.4706 137.85 47.7577 137.731 50.1498 138.07C51.7445 138.296 54.0305 139.233 57.0078 140.88Z" fill="#3483FF"/>
    <path fill-rule="evenodd" clip-rule="evenodd" d="M137.574 138.907V137.722C139.939 136.157 141.656 135.27 142.724 135.059C144.327 134.742 150.173 134.474 155.578 139.59C160.983 144.706 160.13 149.448 158.008 150.283C155.887 151.118 153.364 150.479 150.062 145.334C146.76 140.19 146.796 135.296 144.081 135.589C142.27 135.784 140.102 136.89 137.574 138.907Z" fill="#4F83F1"/>
    <path fill-rule="evenodd" clip-rule="evenodd" d="M137.179 136.263C141.698 128.616 145.277 123.591 147.918 121.189C150.559 118.786 156.139 115.579 164.659 111.568C163.559 108.991 159.612 108.741 152.816 110.819C146.02 112.897 140.808 119.542 137.179 130.753V136.263Z" fill="#3483FF"/>
    <path d="M69.2315 75.468C69.2819 71.9323 66.7757 68.8835 63.3189 68.2754C59.862 67.6672 56.4789 69.6798 55.3373 73.0235C53.1594 72.9805 51.1318 74.1391 50.0504 76.0446C48.969 77.9502 49.0062 80.2986 50.1474 82.1684C51.2887 84.0382 53.3519 85.1309 55.5274 85.0178H68.6432C71.1334 84.9844 73.1774 83.0226 73.3317 80.5178C73.486 78.013 71.6986 75.8116 69.2315 75.468Z" fill="url(#paint2_linear_1630_500)"/>
    <path d="M131.096 62.0197V61.9741C131.091 57.604 127.966 53.8715 123.691 53.1308C119.417 52.3901 115.234 54.856 113.78 58.9733C109.669 59.0388 106.388 62.4507 106.453 66.594C106.518 70.7373 109.904 74.0431 114.016 73.9776H130.309C133.448 73.9832 136.049 71.5258 136.245 68.3688C136.442 65.2118 134.166 62.446 131.051 62.0562L131.096 62.0197Z" fill="url(#paint3_linear_1630_500)"/>
    <path d="M92.8028 98.5485L92.4883 118.931L138.322 104.817L92.8028 98.5485Z" fill="#3553A9"/>
    <path d="M56.291 106.752L92.8026 98.6323V111.01L56.291 106.752Z" fill="#2B4599"/>
    <path d="M56.291 106.752L99.3846 111.094V166.56L56.291 155.95V106.752Z" fill="#3553A9"/>
    <path d="M56.291 106.752L99.4145 110.922L94.7194 137.701L56.291 129.558V106.752Z" fill="#233A8B" fill-opacity="0.61"/>
    <path d="M99.3848 111.094L138.322 104.817V154.503L99.3848 166.56V111.094Z" fill="#3465CA"/>
    <path d="M99.4141 111.231L134.663 105.498L138.322 128.954L104.625 137.701L99.4141 111.231Z" fill="#233A8B" fill-opacity="0.61"/>
    <path d="M56.2912 106.752L45.9277 124.598L89.4332 133.038L99.3847 111.094L56.2912 106.752Z" fill="#5C8DF5"/>
    <path opacity="0.99" d="M99.3848 111.094L111.62 133.038L150.835 123.029L138.322 104.817L99.3848 111.094Z" fill="#487EF1"/>
    <defs>
        <linearGradient id="paint0_linear_1630_500" x1="98.072" y1="139.655" x2="98.072" y2="186.328" gradientUnits="userSpaceOnUse">
            <stop stop-color="#3A6FDB"/>
            <stop offset="1" stop-color="#1D1F31" stop-opacity="0"/>
        </linearGradient>
        <linearGradient id="paint1_linear_1630_500" x1="98.8158" y1="140.763" x2="98.4472" y2="175.867" gradientUnits="userSpaceOnUse">
            <stop stop-color="#3A6FDB"/>
            <stop offset="1" stop-color="#1D1F31" stop-opacity="0"/>
        </linearGradient>
        <linearGradient id="paint2_linear_1630_500" x1="61.2534" y1="64.4734" x2="64.0575" y2="83.2153" gradientUnits="userSpaceOnUse">
            <stop stop-color="#6394FF"/>
            <stop offset="1" stop-color="#14174E" stop-opacity="0"/>
        </linearGradient>
        <linearGradient id="paint3_linear_1630_500" x1="121.293" y1="48.4031" x2="124.8" y2="71.7201" gradientUnits="userSpaceOnUse">
            <stop stop-color="#6394FF"/>
            <stop offset="1" stop-color="#14174E" stop-opacity="0"/>
        </linearGradient>
    </defs>
</svg>
