<svg width="200" height="200" viewBox="0 0 200 200" fill="none" xmlns="http://www.w3.org/2000/svg">
    <path opacity="0.734156" d="M3.75 192.15L3.95 187.2L4.4 182.35L5.15 177.65L6.15 173L7.45 168.45L8.95 164L10.7 159.6L12.65 155.35L14.9 151.25L17.3 147.2L19.95 143.35L22.8 139.6L25.8 136L29.05 132.55L32.5 129.25L36.05 126.1L39.8 123.15L43.7 120.4L47.8 117.8L52 115.35L56.35 113.15L60.8 111.15L65.4 109.35L70.15 107.8L75.05 106.4L79.95 105.3L84.95 104.4L90.05 103.75L95.25 103.4L100.6 103.25L106.35 103.4L111.95 103.85L117.45 104.6L122.85 105.6L128.15 106.95L133.35 108.5L138.35 110.3L143.2 112.4L148 114.7L152.6 117.25L157 120L161.2 123L165.3 126.2L169.15 129.6L172.8 133.15L176.2 136.95L179.45 140.9L182.4 144.95L185.15 149.2L187.65 153.65L189.9 158.2L191.85 162.85L193.55 167.65L194.95 172.55L195.85 176.55L196.55 180.6L197.05 184.75L197.4 188.9L197.5 193.2" fill="url(#paint0_linear_1373_83)"/>
    <path opacity="0.32" d="M119.15 158L119 159.6L118.55 161.05L117.85 162.45L116.95 163.65L115.8 164.7L114.45 165.6L113 166.25L111.4 166.65L109.7 166.8L107.95 166.65L106.35 166.25L104.9 165.6L103.55 164.7L102.4 163.65L101.5 162.45L100.8 161.05L100.35 159.6L100.2 158L100.35 156.4L100.8 154.9L101.5 153.55L102.4 152.3L103.55 151.25L104.9 150.4L106.35 149.75L107.95 149.35L109.7 149.2L111.4 149.35L113 149.75L114.45 150.4L115.8 151.25L116.95 152.3L117.85 153.55L118.55 154.9L119 156.4L119.15 158Z" fill="url(#paint1_linear_1373_83)"/>
    <path opacity="0.34" d="M58.3498 158L58.2498 159.15L57.9498 160.25L57.3998 161.3L55.8998 162.95L53.7998 164.1L52.6498 164.4L51.3498 164.5L50.0498 164.4L48.8998 164.1L46.7998 162.95L45.2998 161.3L44.7498 160.25L44.4498 159.15L44.2998 158L44.4498 156.7L44.8498 155.5L45.4998 154.35L46.3998 153.35L47.4498 152.55L48.6498 151.95L49.9498 151.6L51.3498 151.45L52.7498 151.6L54.0498 151.95L55.2498 152.55L56.2998 153.35L57.1998 154.35L57.8498 155.5L58.2498 156.7L58.3498 158Z" fill="url(#paint2_linear_1373_83)"/>
    <path opacity="0.2" d="M149.549 166.95L149.399 168L148.949 168.95L148.299 169.7L147.449 170.35L146.449 170.75L145.349 170.85L144.199 170.75L143.199 170.35L142.349 169.7L141.699 168.95L141.299 168L141.149 166.95L141.299 165.9L141.699 165L142.349 164.2L143.199 163.6L144.199 163.2L145.349 163.05L146.449 163.2L147.449 163.6L148.299 164.2L148.949 165L149.399 165.9L149.549 166.95Z" fill="url(#paint3_linear_1373_83)"/>
    <path d="M70.8789 160.795L58.1641 161.738L57.6514 154.643L37.7998 156.099L37 145.373L45.6953 114.242L47.7666 113.032L58.3076 113.299L49.6943 144.43L56.8516 143.896L55.9287 131.469L57.9795 130.177L68.623 130.525L69.5459 142.953L74.6523 142.584L77.5029 151.874L75.4316 153.084L72.3555 153.535L72.8066 159.605L70.8789 160.795Z" fill="#3465CA"/>
    <path d="M72.9502 159.585L60.2354 160.528L59.7021 153.433L39.8711 154.909L39.0713 144.163L47.7666 113.032L60.3789 112.089L51.7656 143.22L58.9023 142.687L57.9795 130.177L70.6943 129.213L71.6172 141.743L76.7236 141.374L77.5029 151.874L72.3965 152.264L72.9502 159.585Z" fill="url(#paint4_linear_1373_83)"/>
    <path d="M152.972 162.436L140.339 160.815L138.452 159.523L141.241 153.74L121.513 151.218L119.605 149.7L122.887 140.554L137.632 111.781L148.234 112.068L150.162 113.381L135.499 142.153L142.615 143.076L144.194 130.71L154.817 130.915L156.827 132.33L155.248 144.676L158.427 144.081L160.334 145.332L158.98 155.791L153.915 155.135L152.972 162.436Z" fill="#3465CA"/>
    <path d="M150.941 161.123L138.391 159.503L139.334 152.223L119.605 149.7L120.938 139.241L135.684 110.469L148.214 112.068L133.551 140.841L140.667 141.764L142.267 129.295L154.817 130.915L153.218 143.363L158.386 144.02L157.073 154.253L151.905 153.597L150.941 161.123Z" fill="url(#paint5_linear_1373_83)"/>
    <path fill-rule="evenodd" clip-rule="evenodd" d="M90.4639 111.576L93.6836 119.8L91.0586 128.208L96.3086 135.037L93.1504 141.846L97.8672 143.958L98.9336 147.096L95.2422 153.925L101.025 147.096L101.559 143.425L98.9336 140.8L103.65 133.971L102.604 126.629L106.809 118.754L107.547 111.986L109.044 112.602L110.459 113.278L111.833 114.058L113.166 114.898L114.438 115.821L115.647 116.826L116.796 117.872L117.883 119.021L118.908 120.21L119.852 121.461L120.713 122.773L121.513 124.147L122.21 125.542L122.846 127.019L123.379 128.516L123.83 130.074L124.179 131.653L124.445 133.253L124.589 134.914L124.65 136.596L124.589 138.421L124.404 140.185L124.117 141.907L123.707 143.589L123.194 145.229L122.579 146.829L121.882 148.367L121.062 149.844L120.159 151.279L119.175 152.653L118.108 153.945L116.96 155.176L115.729 156.324L114.438 157.391L113.084 158.375L111.648 159.277L110.172 160.077L108.634 160.795L107.034 161.41L105.373 161.923L103.691 162.312L101.989 162.62L100.226 162.784L98.4004 162.846L96.5752 162.784L94.8115 162.62L93.1094 162.312L91.4277 161.923L89.7666 161.41L88.167 160.795L86.6289 160.077L85.1523 159.277L83.7168 158.375L82.3633 157.391L81.0713 156.324L79.8408 155.176L78.6924 153.945L77.626 152.653L76.6416 151.279L75.7393 149.844L74.9189 148.367L74.2217 146.829L73.6064 145.229L73.0938 143.589L72.6836 141.907L72.3965 140.185L72.2119 138.421L72.1504 136.596L72.2119 134.832L72.376 133.13L72.6631 131.448L73.0322 129.828L73.5244 128.208L74.0986 126.649L74.7754 125.152L75.5342 123.696L76.3955 122.302L77.3184 120.948L78.3438 119.677L79.4307 118.467L80.5996 117.318L81.8096 116.252L83.1221 115.268L84.4756 114.345L85.8906 113.524L87.3672 112.786L88.8848 112.13L90.4639 111.576Z" fill="#3465CA"/>
    <path fill-rule="evenodd" clip-rule="evenodd" d="M90.4639 109.484L93.6836 117.708L91.0586 126.096L96.3086 132.925L93.1504 139.754L97.8672 141.846L98.9336 145.004L95.2422 151.833L101.025 145.004L101.559 141.333L98.9336 138.708L103.65 131.879L102.604 124.537L106.809 116.662L107.547 109.895L109.044 110.489L110.459 111.187L111.833 111.945L113.166 112.786L114.438 113.729L115.647 114.714L116.796 115.78L117.883 116.908L118.908 118.118L119.852 119.369L120.713 120.661L121.513 122.035L122.21 123.45L122.846 124.906L123.379 126.403L123.83 127.962L124.179 129.541L124.445 131.161L124.589 132.802L124.65 134.504L124.589 136.329L124.404 138.093L124.117 139.795L123.707 141.477L123.194 143.138L122.579 144.737L121.882 146.275L121.062 147.752L120.159 149.188L119.175 150.541L118.108 151.833L116.96 153.063L115.729 154.212L114.438 155.278L113.084 156.263L111.648 157.165L110.172 157.985L108.634 158.683L107.034 159.298L105.373 159.811L103.691 160.221L101.989 160.508L100.226 160.692L98.4004 160.754L96.5752 160.692L94.8115 160.508L93.1094 160.221L91.4277 159.811L89.7666 159.298L88.167 158.683L86.6289 157.985L85.1523 157.165L83.7168 156.263L82.3633 155.278L81.0713 154.212L79.8408 153.063L78.6924 151.833L77.626 150.541L76.6416 149.188L75.7393 147.752L74.9189 146.275L74.2217 144.737L73.6064 143.138L73.0938 141.477L72.6836 139.795L72.3965 138.093L72.2119 136.329L72.1504 134.504L72.2119 132.74L72.376 131.018L72.6631 129.356L73.0322 127.716L73.5244 126.116L74.0986 124.558L74.7754 123.061L75.5342 121.604L76.3955 120.189L77.3184 118.856L78.3438 117.585L79.4307 116.354L80.5996 115.227L81.8096 114.16L83.1221 113.155L84.4756 112.253L85.8906 111.412L87.3672 110.674L88.8848 110.038L90.4639 109.484Z" fill="url(#paint6_linear_1373_83)"/>
    <path d="M134.145 70.2734L133.879 71.0938L133.53 71.873L133.12 72.6113L132.054 73.9443L130.762 75.0723L130.003 75.585L128.957 76.1592L127.809 76.6309L126.558 77L125.286 77.2666L123.953 77.4307L122.559 77.4717L121.164 77.4102L119.729 77.2051L118.252 76.877L116.816 76.4258L115.463 75.8721L114.232 75.2363L113.022 74.498L111.956 73.6982L110.992 72.8369L110.11 71.8936L109.352 70.8887L108.716 69.8838L107.998 68.2432L107.588 66.582L107.506 65.7412V64.9004L107.608 64.0596L107.793 63.1982L108.06 62.3779L108.408 61.5986L108.818 60.8604L109.311 60.1836L110.5 58.9531L111.177 58.3994L111.936 57.8867L112.981 57.333L114.13 56.8408L115.381 56.4717L116.652 56.2051L117.985 56.041L119.38 56L120.774 56.0615L122.21 56.2666L123.687 56.5947L125.122 57.0459L126.476 57.5996L127.706 58.2354L128.916 58.9736L129.982 59.7734L130.946 60.6348L131.828 61.5986L132.587 62.583L133.223 63.5879L133.612 64.4082L134.166 66.0488L134.433 67.7305V68.5713L134.33 69.4121L134.145 70.2734Z" fill="#3465CA"/>
    <path d="M154.428 83.8086L154.223 84.4033L153.915 84.9365L153.525 85.4697L153.013 85.9619L152.377 86.4336L151.557 86.9258L150.572 87.377L149.424 87.7871L148.07 88.1563L146.758 88.4229L143.702 88.8125L141.918 88.915L139.601 88.9561L137.058 88.915L134.269 88.7305L131.5 88.4639L128.588 88.0947L125.491 87.582L122.415 87.0078L119.236 86.29L115.955 85.4697L112.674 84.5264L109.577 83.5625L106.624 82.5371L103.691 81.4297L100.964 80.2813L98.4414 79.1328L95.9395 77.9023L93.7246 76.6719L91.7148 75.4619L90.2383 74.4775L87.7773 72.6113L86.7725 71.7295L85.7881 70.7246L85.0088 69.8018L84.373 68.9199L83.9219 68.0996L83.5937 67.3613L83.4092 66.6846L83.3271 66.0283V65.3926L83.4297 64.7979L83.6553 64.2236L83.9629 63.6699L84.3525 63.1367L84.8652 62.6445L85.501 62.1729L86.3213 61.6807L87.3057 61.2295L88.4541 60.8193L89.7871 60.4707L91.0996 60.1836L94.1758 59.7939L95.9395 59.6914L98.2773 59.6504L100.82 59.6914L103.609 59.876L106.357 60.1426L109.29 60.5117L112.387 61.0244L115.463 61.6191L118.642 62.3164L121.923 63.1572L125.184 64.0801L128.301 65.0439L131.254 66.0693L134.187 67.1973L136.914 68.3252L139.437 69.4736L141.918 70.7041L144.153 71.9346L146.143 73.1445L147.64 74.1289L150.101 75.9951L151.105 76.877L152.069 77.8818L152.869 78.8047L153.484 79.6865L153.956 80.5068L154.264 81.2451L154.469 81.9219L154.551 82.5781V83.2139L154.428 83.8086Z" fill="#5C8DF5"/>
    <path opacity="0.734156" fill-rule="evenodd" clip-rule="evenodd" d="M116.755 82.4141L118.601 82.8652L120.344 83.1934L122.005 83.3984L123.666 83.5215H125.163L126.476 83.4395L128.362 83.0908L129.736 82.5781L130.352 82.209L130.782 81.7988L131.11 81.3682L131.336 80.7119L160.867 134.504L38.5586 104.583L105.004 73.5957L104.86 74.334L104.922 74.8672L105.106 75.4414L105.435 76.0566L106.378 77.2051L107.834 78.4355L108.941 79.1738L110.233 79.9121L111.73 80.6504L113.269 81.2861L114.95 81.8809L116.755 82.4141Z" fill="url(#paint7_linear_1373_83)"/>
    <g opacity="0.4" filter="url(#filter0_di_1373_83)">
        <path d="M131.315 80.876L131.11 81.3682L130.782 81.7988L130.352 82.209L129.736 82.5781L128.362 83.0908L126.476 83.4395L125.163 83.5215L123.666 83.501L122.005 83.3984L120.344 83.1729L118.601 82.8652L116.755 82.4141L114.95 81.8809L113.269 81.2861L111.73 80.6504L110.233 79.9121L108.941 79.1738L107.834 78.4355L106.378 77.2051L105.435 76.0566L105.106 75.4414L104.922 74.8672L104.86 74.334L104.942 73.8213L105.127 73.3291L105.455 72.8984L105.906 72.4883L106.501 72.1191L107.875 71.6064L109.762 71.2578L111.095 71.1758H112.571L114.232 71.2988L115.894 71.5039L117.637 71.832L119.482 72.2832L121.308 72.8164L122.969 73.4111L124.507 74.0469L126.004 74.7852L127.296 75.5234L128.403 76.2617L129.859 77.4922L130.803 78.6201L131.131 79.2559L131.315 79.8301L131.377 80.3633L131.315 80.876Z" fill="#A8BEEC"/>
    </g>
    <path d="M46.5156 85.2852L47.3154 85.2441L48.0742 85.0801L48.792 84.834L49.4688 84.4854L50.084 84.0752L50.6377 83.583L51.1504 83.0088L51.5605 82.3936L51.9092 81.7168L52.1553 80.999L52.2988 80.2402L52.3604 79.4404L52.2988 78.6406L52.1553 77.8818L51.9092 77.1641L51.5605 76.4873L51.1504 75.8721L50.6377 75.3184L50.084 74.8262L49.4688 74.3955L48.792 74.0674L48.0742 73.8213L47.3154 73.6572L46.5156 73.5957L45.6953 73.6572L44.9365 73.8213L44.2188 74.0674L43.542 74.3955L42.9268 74.8262L42.373 75.3184L41.8604 75.8721L41.4502 76.4873L41.1016 77.1641L40.8555 77.8818L40.7119 78.6406L40.6504 79.4404L40.7119 80.2402L40.8555 80.999L41.1016 81.7168L41.4502 82.3936L41.8604 83.0088L42.373 83.583L42.9268 84.0752L43.542 84.4854L44.2188 84.834L44.9365 85.0801L45.6953 85.2441L46.5156 85.2852Z" fill="url(#paint8_linear_1373_83)"/>
    <path d="M170.403 112.602L170.896 112.54L171.367 112.417L172.187 111.945L172.803 111.228L173.008 110.797L173.131 110.325L173.192 109.813L173.131 109.3L173.008 108.849L172.803 108.418L172.187 107.68L171.798 107.413L171.367 107.208L170.896 107.085L170.403 107.023L169.891 107.085L169.419 107.208L168.599 107.68L167.983 108.418L167.778 108.849L167.655 109.3L167.614 109.813L167.655 110.325L167.778 110.797L167.983 111.228L168.599 111.945L168.988 112.212L169.419 112.417L169.891 112.54L170.403 112.602Z" fill="url(#paint9_linear_1373_83)"/>
    <defs>
        <filter id="filter0_di_1373_83" x="84.3804" y="60.9358" width="67.4766" height="53.3057" filterUnits="userSpaceOnUse" color-interpolation-filters="sRGB">
            <feFlood flood-opacity="0" result="BackgroundImageFix"/>
            <feColorMatrix in="SourceAlpha" type="matrix" values="0 0 0 0 0 0 0 0 0 0 0 0 0 0 0 0 0 0 127 0" result="hardAlpha"/>
            <feOffset dy="10.24"/>
            <feGaussianBlur stdDeviation="10.24"/>
            <feComposite in2="hardAlpha" operator="out"/>
            <feColorMatrix type="matrix" values="0 0 0 0 0.54902 0 0 0 0 0.588235 0 0 0 0 0.643137 0 0 0 0.5 0"/>
            <feBlend mode="normal" in2="BackgroundImageFix" result="effect1_dropShadow_1373_83"/>
            <feBlend mode="normal" in="SourceGraphic" in2="effect1_dropShadow_1373_83" result="shape"/>
            <feColorMatrix in="SourceAlpha" type="matrix" values="0 0 0 0 0 0 0 0 0 0 0 0 0 0 0 0 0 0 127 0" result="hardAlpha"/>
            <feOffset/>
            <feGaussianBlur stdDeviation="10.24"/>
            <feComposite in2="hardAlpha" operator="arithmetic" k2="-1" k3="1"/>
            <feColorMatrix type="matrix" values="0 0 0 0 1 0 0 0 0 1 0 0 0 0 1 0 0 0 1 0"/>
            <feBlend mode="normal" in2="shape" result="effect2_innerShadow_1373_83"/>
        </filter>
        <linearGradient id="paint0_linear_1373_83" x1="98.6536" y1="103.25" x2="98.6536" y2="185.512" gradientUnits="userSpaceOnUse">
            <stop stop-color="#3A6FDB"/>
            <stop offset="1" stop-color="#1D1F31" stop-opacity="0"/>
        </linearGradient>
        <linearGradient id="paint1_linear_1373_83" x1="109.636" y1="145.343" x2="113.456" y2="164.589" gradientUnits="userSpaceOnUse">
            <stop stop-color="#6394FF"/>
            <stop offset="1" stop-color="#14174E" stop-opacity="0"/>
        </linearGradient>
        <linearGradient id="paint2_linear_1373_83" x1="51.296" y1="148.59" x2="54.1283" y2="162.861" gradientUnits="userSpaceOnUse">
            <stop stop-color="#6394FF"/>
            <stop offset="1" stop-color="#14174E" stop-opacity="0"/>
        </linearGradient>
        <linearGradient id="paint3_linear_1373_83" x1="145.332" y1="161.341" x2="147.025" y2="169.871" gradientUnits="userSpaceOnUse">
            <stop stop-color="#6394FF"/>
            <stop offset="1" stop-color="#14174E" stop-opacity="0"/>
        </linearGradient>
        <linearGradient id="paint4_linear_1373_83" x1="58.2871" y1="112.089" x2="73" y2="154" gradientUnits="userSpaceOnUse">
            <stop stop-color="#6A97F8"/>
            <stop offset="1" stop-color="#477DF1"/>
        </linearGradient>
        <linearGradient id="paint5_linear_1373_83" x1="138.996" y1="110.469" x2="120" y2="147" gradientUnits="userSpaceOnUse">
            <stop stop-color="#6A97F8"/>
            <stop offset="1" stop-color="#477BE9"/>
        </linearGradient>
        <linearGradient id="paint6_linear_1373_83" x1="98.4004" y1="109.484" x2="98" y2="203.5" gradientUnits="userSpaceOnUse">
            <stop stop-color="#6A97F8"/>
            <stop offset="1" stop-color="#4F83F1"/>
        </linearGradient>
        <linearGradient id="paint7_linear_1373_83" x1="116.488" y1="76.0039" x2="103.253" y2="124.533" gradientUnits="userSpaceOnUse">
            <stop stop-color="#3A6FDB"/>
            <stop offset="1" stop-color="#3A6FDB" stop-opacity="0"/>
        </linearGradient>
        <linearGradient id="paint8_linear_1373_83" x1="46.4813" y1="71.0343" x2="49.192" y2="83.7424" gradientUnits="userSpaceOnUse">
            <stop stop-color="#6394FF"/>
            <stop offset="1" stop-color="#14174E" stop-opacity="0"/>
        </linearGradient>
        <linearGradient id="paint9_linear_1373_83" x1="170.392" y1="105.801" x2="171.687" y2="111.864" gradientUnits="userSpaceOnUse">
            <stop stop-color="#6394FF"/>
            <stop offset="1" stop-color="#14174E" stop-opacity="0"/>
        </linearGradient>
    </defs>
</svg>
