<svg width="24" height="24" viewBox="0 0 24 24" fill="none" xmlns="http://www.w3.org/2000/svg">
    <g clip-path="url(#clip0_496_5462)">
        <path d="M23.9004 11.9998C23.9004 18.5951 18.5542 23.9413 11.9589 23.9413C5.36376 23.9413 0.0174561 18.5951 0.0174561 11.9998C0.0174561 5.40466 5.36376 0.0583496 11.9589 0.0583496C18.5542 0.0583496 23.9004 5.40466 23.9004 11.9998Z" fill="#3483FF"/>
        <path d="M17.9407 10.5054C17.9934 10.3919 18.0099 10.2815 17.9902 10.1744C17.9704 10.0672 17.9143 9.96939 17.8218 9.8811L12.7129 5L11.8812 5.81354L15.9604 9.71086H6V10.846H17.4059C17.5379 10.846 17.6534 10.8176 17.7525 10.7609C17.8515 10.7041 17.9142 10.6189 17.9407 10.5054ZM18 13.154H6.59405C6.46207 13.154 6.34655 13.1824 6.2475 13.2391C6.14844 13.2959 6.08572 13.3811 6.05935 13.4946C6.00659 13.6081 5.99008 13.7185 6.00982 13.8256C6.02955 13.9328 6.08562 14.0306 6.17804 14.1189L11.287 19L12.1187 18.1865L8.03947 14.2891H17.9999V13.154H18Z" fill="white"/>
    </g>
    <defs>
        <clipPath id="clip0_496_5462">
            <rect width="24" height="24" fill="white"/>
        </clipPath>
    </defs>
</svg>
