<svg width="200" height="200" viewBox="0 0 200 200" fill="none" xmlns="http://www.w3.org/2000/svg">
    <path opacity="0.734156" d="M3.75 192.15L3.95 187.2L4.4 182.35L5.15 177.65L6.15 173L7.45 168.45L8.95 164L10.7 159.6L12.65 155.35L14.9 151.25L17.3 147.2L19.95 143.35L22.8 139.6L25.8 136L29.05 132.55L32.5 129.25L36.05 126.1L39.8 123.15L43.7 120.4L47.8 117.8L52 115.35L56.35 113.15L60.8 111.15L65.4 109.35L70.15 107.8L75.05 106.4L79.95 105.3L84.95 104.4L90.05 103.75L95.25 103.4L100.6 103.25L106.35 103.4L111.95 103.85L117.45 104.6L122.85 105.6L128.15 106.95L133.35 108.5L138.35 110.3L143.2 112.4L148 114.7L152.6 117.25L157 120L161.2 123L165.3 126.2L169.15 129.6L172.8 133.15L176.2 136.95L179.45 140.9L182.4 144.95L185.15 149.2L187.65 153.65L189.9 158.2L191.85 162.85L193.55 167.65L194.95 172.55L195.85 176.55L196.55 180.6L197.05 184.75L197.4 188.9L197.5 193.2" fill="url(#paint0_linear_591_120)"/>
    <path opacity="0.32" d="M119.15 158L119 159.6L118.55 161.05L117.85 162.45L116.95 163.65L115.8 164.7L114.45 165.6L113 166.25L111.4 166.65L109.7 166.8L107.95 166.65L106.35 166.25L104.9 165.6L103.55 164.7L102.4 163.65L101.5 162.45L100.8 161.05L100.35 159.6L100.2 158L100.35 156.4L100.8 154.9L101.5 153.55L102.4 152.3L103.55 151.25L104.9 150.4L106.35 149.75L107.95 149.35L109.7 149.2L111.4 149.35L113 149.75L114.45 150.4L115.8 151.25L116.95 152.3L117.85 153.55L118.55 154.9L119 156.4L119.15 158Z" fill="url(#paint1_linear_591_120)"/>
    <path d="M140.899 118.45L140.749 119.6L140.349 120.7L139.699 121.7L138.799 122.65L137.699 123.35L136.449 123.9L135.099 124.25L133.649 124.35L131.099 124L128.999 122.95L127.399 121.4L126.849 120.5L126.549 119.5L126.449 118.45L126.549 117.35L126.849 116.35L128.099 114.6L129.999 113.3L131.099 112.85L133.649 112.5L135.099 112.6L136.449 112.95L137.699 113.5L138.799 114.2L139.699 115.15L140.349 116.15L140.749 117.25L140.899 118.45Z" fill="url(#paint2_linear_591_120)"/>
    <path d="M88.2498 110.45L90.3498 110.1L91.2998 109.75L92.8498 108.55L93.8998 107L94.1498 106.15L94.2498 105.2L93.8998 103.45L86.1498 104.25L82.2998 104.85L82.3998 106.15L82.6498 107L83.6998 108.55L85.2498 109.75L86.1498 110.1L88.2498 110.45Z" fill="#CECECE"/>
    <path d="M53.1996 130L55.0996 129.85L56.9496 129.5L58.6496 128.95L60.2996 128.2L61.7996 127.25L63.1496 126.15L64.3496 124.9L65.3496 123.5L66.1496 122L66.7496 120.4L67.1496 118.7L67.2496 116.9L67.0996 114.95L66.6496 113.05L65.8996 111.25L64.8996 109.6L60.5496 111.25L56.2996 113.05L52.1496 115.1L48.0996 117.3L44.1996 119.7L40.3496 122.3L41.1996 123.75L42.1996 125.1L43.3996 126.3L44.6996 127.35L46.1996 128.25L47.7996 129L49.4996 129.55L51.2996 129.85L53.1996 130Z" fill="url(#paint3_linear_591_120)"/>
    <path opacity="0.34" d="M58.3498 158L58.2498 159.15L57.9498 160.25L57.3998 161.3L55.8998 162.95L53.7998 164.1L52.6498 164.4L51.3498 164.5L50.0498 164.4L48.8998 164.1L46.7998 162.95L45.2998 161.3L44.7498 160.25L44.4498 159.15L44.2998 158L44.4498 156.7L44.8498 155.5L45.4998 154.35L46.3998 153.35L47.4498 152.55L48.6498 151.95L49.9498 151.6L51.3498 151.45L52.7498 151.6L54.0498 151.95L55.2498 152.55L56.2998 153.35L57.1998 154.35L57.8498 155.5L58.2498 156.7L58.3498 158Z" fill="url(#paint4_linear_591_120)"/>
    <path opacity="0.2" d="M149.549 166.95L149.399 168L148.949 168.95L148.299 169.7L147.449 170.35L146.449 170.75L145.349 170.85L144.199 170.75L143.199 170.35L142.349 169.7L141.699 168.95L141.299 168L141.149 166.95L141.299 165.9L141.699 165L142.349 164.2L143.199 163.6L144.199 163.2L145.349 163.05L146.449 163.2L147.449 163.6L148.299 164.2L148.949 165L149.399 165.9L149.549 166.95Z" fill="url(#paint5_linear_591_120)"/>
    <path opacity="0.4" d="M157.75 119.95L157.85 118.65L157.45 117.95L156.95 117.7H156.35L155.8 117.95L155.35 118.3L155.1 118.85L154.4 123.6L153.7 124.75L152.95 125.45V125.95L153.2 126.45L153.65 127.05L155.05 127.9L155.95 128.05L157 127.9L158.3 127.4L159.05 126.85L159.6 126.15L159.85 125.3L159.9 123.35L159.55 122.4L158.05 121.6L157.7 120.55L157.75 119.95Z" fill="url(#paint6_linear_591_120)"/>
    <path d="M156.3 126L157.15 125.1L157.6 123.95L157.25 125.2L156.4 126.2L156.3 126Z" fill="#9ABAFF"/>
    <path d="M156.35 122.2L156.05 124.2L156.75 127.25L156.6 130.3H156.35L156.5 127.25L155.95 124.2L156.05 123.15L156.35 122.15V122.2Z" fill="#9ABAFF"/>
    <path opacity="0.8" d="M168.75 124L168.85 122.35L168.7 121.85L168.35 121.4L167.75 121.15H166.95L166.25 121.45L165.7 121.95L165.35 122.65L165.1 123.8L164.5 128.6L164.15 129.45L163.65 130.1L162.7 130.85L162.6 131.15L162.95 132.25L163.5 133L164.3 133.6L166.05 134.25L167.8 134.1L168.95 133.65L170.4 132.7L170.9 132.1L171.4 130.75L171.45 128.25L171 127.05L169.45 126.35L169.1 126.05L168.8 125.5L168.65 124.75L168.75 124Z" fill="url(#paint7_linear_591_120)"/>
    <path d="M166.899 131.65L167.999 130.55L168.549 129.05L168.149 130.6L167.099 131.9L166.899 131.65Z" fill="#9ABAFF"/>
    <path d="M166.95 126.85L166.65 128.1L166.6 129.4L167.3 131.9L167.5 133.25L167.25 137.15L166.95 137.2L166.9 135.85L167.15 133.3L166.4 129.45L166.5 128.1L166.9 126.85H166.95Z" fill="#9ABAFF"/>
    <path opacity="0.8" d="M27.55 129L27.8 127.55L27.75 126.7L27.2 125.55L26.2 125.05L25.45 125L24.75 125.1L23.6 125.85L22.85 127.05L22.55 128.65L21.7 135.4L20.85 137L19.15 138.5L19 138.9L19.1 139.5L19.5 140.45L20.3 141.45L21.85 142.55L23.85 143.2H25L26.25 143L27.9 142.4L29.05 141.75L29.9 141.1L30.55 140.25L31 139.35L31.25 138.4L31.4 136.8L31.3 134.9L31.05 133.8L30.75 133.25L30.25 132.9L28.55 132.25L28.1 131.85L27.65 131.05L27.45 130.05L27.55 129Z" fill="url(#paint8_linear_591_120)"/>
    <path d="M25.0005 139.6L25.8505 138.95L26.5005 138.1L27.0005 137.1L27.3005 136L26.7005 138.2L26.1005 139.2L25.2505 140L25.0005 139.6Z" fill="#9ABAFF"/>
    <path d="M25.0498 132.95L24.5498 135.3V136.5L24.6498 137.4L25.5498 140L25.7998 141.85L25.4498 147.25L25.0498 147.3L24.9998 145.45L25.2998 141.85L25.0998 140.1L24.3498 137.45L24.2998 136.55L24.5998 134.1L24.9998 132.95H25.0498Z" fill="#9ABAFF"/>
    <path d="M72.7 140.2L72.8 138.95L72.4 138.2L71.95 138H71.35L70.8 138.2L70.35 138.6L70.1 139.15L69.45 143.75L68.8 144.85L68 145.55V146L68.25 146.5L68.7 147.1L70.1 147.9L70.95 148.05L72 147.9L73.25 147.45L74 146.9L74.5 146.2L74.75 145.4V143.45L74.45 142.55L73 141.8L72.65 140.75L72.7 140.2Z" fill="url(#paint9_linear_591_120)"/>
    <path d="M71.2998 146.05L72.0998 145.2L72.5498 144.05L72.1998 145.25L71.4498 146.25L71.2998 146.05Z" fill="#9ABAFF"/>
    <path d="M71.3002 142.35L71.0502 144.35L71.7502 147.25L71.5502 150.3H71.3502L71.5002 147.3L70.9502 144.35L71.0502 143.35L71.3502 142.35H71.3002Z" fill="#9ABAFF"/>
    <path d="M45.0318 71.2523L45.05 71.25H45L45.0318 71.2523Z" fill="url(#paint10_linear_591_120)"/>
    <path d="M47.9617 73.1404L47.85 72.85L46.95 71.85L45.7 71.3L45.0318 71.2523L44.25 71.35L44.15 70.35L43.8 69.6L43.3 68.95L42.65 68.45L41.9 68.1L41 68L40.15 68.1L39.35 68.45L38.7 68.95L38.2 69.6L37.9 70.35L37.75 71.3L36.95 71.5L35.7 72.45L35.05 73.85L35 74.7L35.15 75.55L36 76.85L37.35 77.6L38.2 77.7L39.05 77.6L39.85 77.3L41.2 77.6L42.15 77.45L43 77L44.25 77.65H45.0304L45.3504 78.05L45.9004 78.45L46.6004 78.6L47.5004 78.35L48.4004 78.5L49.3004 78.2L49.8504 78.45L50.4504 78.6L51.1504 78.45L51.7504 78.05L52.1504 77.45L52.3004 76.75L52.1504 76L51.7504 75.45L51.1504 75.05L50.4504 74.9V74.95L49.9504 75L49.8504 74.2L49.4504 73.65L48.9004 73.25L48.1504 73.1L47.9617 73.1404Z" fill="url(#paint11_linear_591_120)"/>
    <path d="M152.25 97.6999L153.4 97.5498L154.4 97.6498L155.35 97.9999L156.2 98.4999L156.9 99.1499L157.5 99.9499L157.9 100.85L158.1 101.85L158.092 102.002L158.2 102.15L158.3 102.9L158.85 102.85L159.45 102.95L160.35 103.65L160.75 104.8L160.35 105.9L159.35 106.55L158.2 106.5L157.65 106.2L156.6 106.55L155.8 106.35L155.392 106.479L155.15 106.6L154.2 106.9L153.25 106.95L152.25 106.8L151.35 106.5L150.5 105.95L149.4 106.5L148.25 106.75L147.05 106.65L145.9 106.3L144.15 106.9L142.35 106.8L140.7 106L140 105.35L139.1 103.8L138.85 102L139 101.05L139.8 99.3998L141.15 98.1999L142.9 97.5999L142.95 96.6999L143.5 95.1999L144.25 94.2499L145.2 93.4999L145.95 93.1498L147.6 92.8499L148.45 92.9499L149.95 93.4999L150.9 94.2499L151.65 95.1999L152.2 96.6999L152.25 97.6999Z" fill="url(#paint12_linear_591_120)"/>
    <path d="M126.6 122.5L110.65 101.85L112.2 99.65L113.55 97.4L114.6 95.1L115.45 92.75L116.1 90.3L116.5 87.85L116.7 85.35V82.85L116.45 80.4L115.95 77.95L115.3 75.55L114.4 73.15L113.3 70.9L111.95 68.75L110.4 66.65L108.65 64.65L106.7 62.85L104.65 61.3L102.5 59.9L100.25 58.8L97.9002 57.85L95.5002 57.1L93.0502 56.6L90.6002 56.35L88.1002 56.25L85.6002 56.4L83.1502 56.8L80.6502 57.4L78.3002 58.2L75.9502 59.25L73.7002 60.5L71.5002 62.05L69.5002 63.75L67.6502 65.6L66.0502 67.55L64.6502 69.65L63.4002 71.85L62.4002 74.15L61.6002 76.5L61.0002 78.9L60.6002 81.4L60.4502 83.85L60.5002 86.35L60.8002 88.85L61.3002 91.35L62.0502 93.75L63.0502 96.15L64.2502 98.55L65.7002 100.8L67.3002 102.8L69.0502 104.65L70.9502 106.35L73.0002 107.8L75.1502 109.1L77.3502 110.2L79.7002 111.1L82.1002 111.8L84.5502 112.25L87.0002 112.5H89.5502L92.0502 112.3L94.6002 111.9L97.1002 111.2L99.6002 110.3L115.6 131.05L116.4 132L117.35 132.75L118.45 133.35L119.6 133.75L120.8 133.9L122.1 133.85L123.3 133.6L124.45 133.15L125.5 132.5L126.4 131.65L127.15 130.65L127.7 129.55L128.05 128.35L128.2 127.1L128.1 125.9L127.85 124.7L127.35 123.6L126.6 122.55V122.5ZM98.2002 98.6L96.4002 99.65L94.5002 100.5L92.4502 101.1L90.4502 101.4L88.5002 101.55L86.5502 101.4L84.6502 101.1L82.8002 100.55L81.0502 99.8L79.4002 98.85L77.8002 97.75L76.4002 96.45L75.1002 95L74.0002 93.4L73.0002 91.6L72.2502 89.7L71.7502 87.8L71.4502 85.9L71.4002 83.95L71.5502 82.05L71.9002 80.15L72.4502 78.35L73.2502 76.55L74.2002 74.9L75.3502 73.35L76.7002 71.9L78.2502 70.6L79.9502 69.45L81.7002 68.55L83.5002 67.9L85.4002 67.45L87.3002 67.2L89.2002 67.15L91.1002 67.3L93.0002 67.7L94.8502 68.3L96.6002 69.1L98.3002 70.1L99.9002 71.35L101.35 72.8L102.6 74.3L103.6 75.95L104.45 77.7L105.1 79.5L105.55 81.35L105.75 83.25V85.2L105.55 87.1L105.15 89L104.5 90.85L103.6 92.7L102.55 94.4L101.25 95.95L99.8002 97.35L98.2002 98.6Z" fill="#3465CA"/>
    <path d="M132.25 123.25L116.3 102.55L117.85 100.4L119.15 98.1502L120.25 95.8502L121.1 93.5002L121.7 91.0002L122.15 88.5502L122.35 86.1002L122.3 83.6002L122.05 81.1002L121.6 78.6502L120.95 76.2502L120 73.9002L118.9 71.6002L117.6 69.4502L116.05 67.3502L114.3 65.4002L112.3 63.5502L110.25 62.0002L108.1 60.6502L105.85 59.5002L103.5 58.5502L101.1 57.8502L98.7003 57.3002L96.2003 57.0502L93.7003 56.9502L91.2503 57.1002L88.7503 57.5002L86.3003 58.1002L83.9003 58.9002L81.6003 59.9502L79.3503 61.2002L77.1503 62.7502L75.1003 64.4502L73.2503 66.3002L71.6503 68.2502L70.2503 70.3502L69.0003 72.5502L68.0003 74.8502L67.2003 77.2002L66.6003 79.6002L66.2003 82.1002L66.0503 84.5502L66.1503 87.0502L66.4003 89.6002L66.9003 92.0502L67.6503 94.5002L68.6503 96.9002L69.8503 99.2502L71.3503 101.5L72.9003 103.55L74.6503 105.4L76.5503 107.05L78.6003 108.55L80.7503 109.85L83.0003 110.9L85.3003 111.8L87.7003 112.5L90.1503 112.95L92.6503 113.2L95.1503 113.25L97.7003 113.05L100.2 112.6L102.7 111.95L105.2 111L121.2 131.75L122.05 132.65L123.05 133.35L124.1 133.9L126.4 134.35L128.7 134.05L129.8 133.6L130.9 132.9L131.8 132.05L132.55 131.1L133.1 130.05L133.6 127.8L133.35 125.45L132.9 124.35L132.25 123.25ZM103.8 99.3002L102 100.4L100.1 101.2L98.1003 101.8L95.9003 102.2L93.7503 102.25L91.6503 102.1L89.6003 101.65L87.6003 101L85.7503 100.05L84.0003 98.9502L82.4003 97.6002L80.9503 96.1002L79.7003 94.4002L78.6503 92.5002L77.8003 90.4502L77.2503 88.3002L76.9503 86.2002V84.1002L77.2003 82.0002L77.7003 79.9502L78.4003 78.0002L79.4003 76.1502L80.5503 74.4502L81.9503 72.8502L83.5503 71.4502L85.3003 70.2502L87.2503 69.2502L89.3503 68.4502L91.4503 68.0002L93.5503 67.8002L95.6503 67.8502L97.7003 68.1502L99.7003 68.7002L101.65 69.5002L103.45 70.5002L105.15 71.7502L106.7 73.2002L108.1 74.8502L109.25 76.7002L110.2 78.7502L110.9 80.7502L111.25 82.8502L111.4 84.9502L111.3 87.0002L110.95 89.1002L110.3 91.0502L109.45 92.9502L108.4 94.8002L107.1 96.4502L105.55 97.9502L103.8 99.3002Z" fill="#4F83F1"/>
    <defs>
        <linearGradient id="paint0_linear_591_120" x1="98.6536" y1="103.25" x2="98.6536" y2="185.512" gradientUnits="userSpaceOnUse">
            <stop stop-color="#3A6FDB"/>
            <stop offset="1" stop-color="#1D1F31" stop-opacity="0"/>
        </linearGradient>
        <linearGradient id="paint1_linear_591_120" x1="109.636" y1="145.343" x2="113.455" y2="164.59" gradientUnits="userSpaceOnUse">
            <stop stop-color="#6394FF"/>
            <stop offset="1" stop-color="#14174E" stop-opacity="0"/>
        </linearGradient>
        <linearGradient id="paint2_linear_591_120" x1="133.645" y1="109.903" x2="135.934" y2="122.971" gradientUnits="userSpaceOnUse">
            <stop stop-color="#6394FF"/>
            <stop offset="1" stop-color="#14174E" stop-opacity="0"/>
        </linearGradient>
        <linearGradient id="paint3_linear_591_120" x1="56.2498" y1="112.596" x2="59.7407" y2="127.671" gradientUnits="userSpaceOnUse">
            <stop stop-color="#6394FF"/>
            <stop offset="1" stop-color="#14174E" stop-opacity="0"/>
        </linearGradient>
        <linearGradient id="paint4_linear_591_120" x1="51.296" y1="148.591" x2="54.1283" y2="162.861" gradientUnits="userSpaceOnUse">
            <stop stop-color="#6394FF"/>
            <stop offset="1" stop-color="#14174E" stop-opacity="0"/>
        </linearGradient>
        <linearGradient id="paint5_linear_591_120" x1="145.332" y1="161.341" x2="147.025" y2="169.871" gradientUnits="userSpaceOnUse">
            <stop stop-color="#6394FF"/>
            <stop offset="1" stop-color="#14174E" stop-opacity="0"/>
        </linearGradient>
        <linearGradient id="paint6_linear_591_120" x1="156.425" y1="117.7" x2="156.425" y2="128.05" gradientUnits="userSpaceOnUse">
            <stop stop-color="#4F83F1"/>
            <stop offset="1" stop-color="#3465CA"/>
        </linearGradient>
        <linearGradient id="paint7_linear_591_120" x1="167.025" y1="121.15" x2="167.025" y2="134.25" gradientUnits="userSpaceOnUse">
            <stop stop-color="#4F83F1"/>
            <stop offset="1" stop-color="#3465CA"/>
        </linearGradient>
        <linearGradient id="paint8_linear_591_120" x1="25.2" y1="125" x2="25.2" y2="143.2" gradientUnits="userSpaceOnUse">
            <stop stop-color="#4F83F1"/>
            <stop offset="1" stop-color="#3465CA"/>
        </linearGradient>
        <linearGradient id="paint9_linear_591_120" x1="71.375" y1="138" x2="71.375" y2="148.05" gradientUnits="userSpaceOnUse">
            <stop stop-color="#4F83F1"/>
            <stop offset="1" stop-color="#3465CA"/>
        </linearGradient>
        <linearGradient id="paint10_linear_591_120" x1="43.6147" y1="65.6773" x2="45.1654" y2="77.5223" gradientUnits="userSpaceOnUse">
            <stop stop-color="#6394FF"/>
            <stop offset="1" stop-color="#14174E" stop-opacity="0"/>
        </linearGradient>
        <linearGradient id="paint11_linear_591_120" x1="43.6147" y1="65.6773" x2="45.1654" y2="77.5223" gradientUnits="userSpaceOnUse">
            <stop stop-color="#6394FF"/>
            <stop offset="1" stop-color="#14174E" stop-opacity="0"/>
        </linearGradient>
        <linearGradient id="paint12_linear_591_120" x1="149.755" y1="89.7602" x2="151.919" y2="105.489" gradientUnits="userSpaceOnUse">
            <stop stop-color="#6394FF"/>
            <stop offset="1" stop-color="#14174E" stop-opacity="0"/>
        </linearGradient>
    </defs>
</svg>
