<svg width="38" height="38" viewBox="0 0 38 38" fill="none" xmlns="http://www.w3.org/2000/svg">
    <path d="M17.457 29.3796C10.3774 29.3796 4.75 23.9259 4.75 17.0648C4.75 10.2037 10.3774 4.75 17.457 4.75C24.5366 4.75 30.164 10.2037 30.164 17.0648C30.164 23.9259 24.5366 29.3796 17.457 29.3796ZM17.457 25.8611C22.5398 25.8611 26.5334 21.9907 26.5334 17.0648C26.5334 12.1389 22.5398 8.26852 17.457 8.26852C12.3742 8.26852 8.38057 12.1389 8.38057 17.0648C8.38057 21.9907 12.3742 25.8611 17.457 25.8611ZM28.1672 25.8611L33.25 30.787L30.7086 33.25L25.6258 28.3241L28.1672 25.8611Z" fill="white"/>
</svg>
