<svg width="16" height="16" viewBox="0 0 16 17" fill="none" xmlns="http://www.w3.org/2000/svg">
    <path fill-rule="evenodd" clip-rule="evenodd" d="M8 16.5C12.4183 16.5 16 12.9183 16 8.5C16 4.08172 12.4183 0.5 8 0.5C3.58172 0.5 0 4.08172 0 8.5C0 12.9183 3.58172 16.5 8 16.5ZM8.3546 12.5453L12.3999 8.50001L8.3546 4.45471C8.28022 4.38068 8.17955 4.33911 8.0746 4.33911C7.96966 4.33911 7.86898 4.38068 7.7946 4.45471L7.2346 5.01471C7.19777 5.05145 7.16856 5.09509 7.14862 5.14314C7.12868 5.19118 7.11842 5.24269 7.11842 5.29471C7.11842 5.34673 7.12868 5.39824 7.14862 5.44628C7.16856 5.49433 7.19777 5.53797 7.2346 5.57471L9.36253 7.70621H3.83431C3.75134 7.70621 3.67178 7.74802 3.61311 7.82246C3.55444 7.89689 3.52148 7.99784 3.52148 8.10311V8.89691C3.52148 9.00217 3.55444 9.10312 3.61311 9.17756C3.67178 9.25199 3.75134 9.29381 3.83431 9.29381H9.3614L7.2325 11.4232C7.19568 11.4599 7.16646 11.5036 7.14652 11.5516C7.12659 11.5997 7.11632 11.6512 7.11632 11.7032C7.11632 11.7552 7.12659 11.8067 7.14652 11.8548C7.16646 11.9028 7.19568 11.9465 7.2325 11.9832L7.7925 12.5432C7.82914 12.5805 7.8728 12.6101 7.92097 12.6304C7.96913 12.6507 8.02085 12.6613 8.07311 12.6615C8.12538 12.6617 8.17717 12.6515 8.22549 12.6316C8.27381 12.6116 8.31769 12.5823 8.3546 12.5453Z" fill="currentColor"/>
</svg>
