<svg width="24" height="24" viewBox="0 0 24 24" fill="none" xmlns="http://www.w3.org/2000/svg">
    <g clip-path="url(#clip0_1336_209)">
        <path d="M3.86827 20.1317C1.7116 17.9751 0.5 15.05 0.5 12C0.5 8.95001 1.7116 6.02494 3.86827 3.86827C6.02494 1.7116 8.95001 0.5 12 0.5C15.05 0.5 17.9751 1.7116 20.1317 3.86827C22.2884 6.02494 23.5 8.95001 23.5 12C23.5 15.05 22.2884 17.9751 20.1317 20.1317C17.9751 22.2884 15.05 23.5 12 23.5C8.95001 23.5 6.02494 22.2884 3.86827 20.1317Z" stroke="currentColor"/>
        <path d="M13.3186 11.6416C13.4374 12.091 13.3214 12.5896 12.9685 12.9416C12.442 13.4681 11.5877 13.4681 11.0612 12.9416C10.5347 12.4151 10.5347 11.5608 11.0612 11.0343C11.4419 10.6536 11.9944 10.5486 12.4708 10.7186L17.3644 6.27443C17.6234 6.01629 17.9503 5.92436 18.0515 6.02464C18.1759 6.14907 18.0599 6.45271 17.8017 6.71086L13.3186 11.6416ZM12 7.125C9.30807 7.125 7.125 9.30807 7.125 12C7.125 14.6919 9.30807 16.875 12 16.875C14.6919 16.875 16.875 14.6919 16.875 12C16.875 11.3602 16.7441 10.7529 16.5203 10.193L17.7014 8.87721C18.2094 9.80486 18.5 10.8681 18.5 12C18.5 15.5899 15.5899 18.5 12 18.5C8.41014 18.5 5.5 15.5899 5.5 12C5.5 8.41014 8.41014 5.5 12 5.5C13.1626 5.5 14.2518 5.80921 15.1952 6.34407L13.9175 7.51964C13.3288 7.26707 12.6816 7.125 12 7.125Z" fill="currentColor"/>
    </g>
    <defs>
        <clipPath id="clip0_1336_209">
            <rect width="24" height="24" fill="white"/>
        </clipPath>
    </defs>
</svg>
