<svg width="20" height="20" viewBox="0 0 21 20" fill="none" xmlns="http://www.w3.org/2000/svg">
    <path d="M10.0239 6.10504C11.1513 6.10504 12.0685 5.203 12.0685 4.09423C12.0685 2.98545 11.1513 2.08334 10.0239 2.08334C8.89637 2.08334 7.97908 2.98545 7.97908 4.09423C7.97908 5.203 8.89637 6.10504 10.0239 6.10504ZM15.2791 10.7184L15.2965 10.7178L15.3037 10.718C15.3069 10.7181 15.3101 10.7183 15.3132 10.7183C15.646 10.7183 15.9166 10.452 15.9166 10.1249C15.9166 9.79765 15.646 9.53148 15.3132 9.53148C15.2992 9.53148 15.2838 9.53215 15.2661 9.53347L15.2577 9.53412L15.2494 9.53375C14.53 9.50276 12.5783 8.7757 11.4912 8.04595C10.6935 7.51043 10.1946 6.96589 10.1027 6.86222L10.0988 6.85767C9.97066 6.71029 9.78556 6.62594 9.59059 6.62594C9.55426 6.62594 9.51757 6.62895 9.4816 6.63484C8.9444 6.72308 7.55958 7.04854 6.3047 8.1638C5.4421 8.93043 5.40559 9.65227 5.40521 11.212C5.40521 11.5921 5.66265 11.868 6.01733 11.868C6.3852 11.868 6.68449 11.5737 6.68449 11.2118C6.68449 10.999 6.67754 10.8063 6.6714 10.6363C6.63834 9.72125 6.62179 9.26185 7.72834 8.62444L7.73173 8.6226L8.8106 8.04082L8.74905 9.24929C8.70917 10.0319 8.82133 10.8899 9.08241 11.7994L9.10835 11.8897L9.10829 11.9836C9.10823 12.0326 9.09801 13.1984 8.32464 14.6391C7.91358 15.4049 6.91692 16.5053 5.46088 17.0863C5.3122 17.1457 5.19566 17.2628 5.1328 17.4159C5.06364 17.5845 5.06709 17.7767 5.1424 17.9433C5.24952 18.1802 5.48915 18.3333 5.75284 18.3333C5.84143 18.3333 5.93105 18.3144 6.0268 18.2754C7.76919 17.5657 8.81008 16.3583 9.37646 15.4704C9.99003 14.5086 10.1926 13.7104 10.1945 13.7024L10.2327 13.5487L11.0176 13.8719C11.6101 14.139 12.3747 14.7482 13.013 15.4617C13.4362 15.9346 14.1658 16.8633 14.2974 17.7694C14.3441 18.0909 14.6281 18.3333 14.9581 18.3333C14.9897 18.3333 15.0218 18.3311 15.0535 18.3266C15.4168 18.2752 15.6704 17.942 15.6184 17.5838C15.5045 16.7994 14.9674 15.7828 14.1451 14.7948C13.3496 13.8391 12.3974 13.052 11.598 12.6895L11.3451 12.5748L11.2409 12.31C10.9608 11.6216 10.7726 10.9692 10.682 10.3722L10.4854 9.07747L11.6728 9.66917C12.7535 10.2077 14.5042 10.7169 15.2791 10.7184Z" fill="currentColor"/>
</svg>
