<svg width="20" height="20" viewBox="0 0 21 20" fill="none" xmlns="http://www.w3.org/2000/svg">
    <g clip-path="url(#clip0_478_1536)">
        <path d="M12.4936 13.0352L12.4717 12.4355L12.9265 12.0438C15.8963 9.48318 17.087 6.39155 16.6722 3.82155C14.0803 3.39988 10.9637 4.58118 8.41181 7.54974L8.02637 7.99827L7.43478 7.98453C6.54771 7.96391 5.79558 8.17194 5.04969 8.67357L7.82647 10.5352L7.27049 11.5384C7.1368 11.7796 7.26237 12.3193 7.69653 12.7516C8.13007 13.1839 8.68355 13.3138 8.91657 13.1889L9.91733 12.6504L11.787 15.4522C12.3168 14.6888 12.5261 13.9341 12.493 13.0346L12.4936 13.0352ZM17.5655 2.73583L17.7192 2.77518L17.7579 2.92761C18.4532 5.53634 17.7429 9.54127 13.7417 12.9896C13.8011 14.6194 13.2232 15.9225 11.8776 17.2631L11.6465 17.493L9.50878 14.289C8.75852 14.6931 7.62219 14.4414 6.81446 13.6368C6.00548 12.8309 5.75372 11.699 6.17727 10.9337L3.00006 8.80351L3.23057 8.57424C4.53869 7.27113 5.84743 6.69765 7.46415 6.73514C10.9062 2.73145 14.9468 2.04491 17.5655 2.73583ZM6.14853 14.2933C6.56708 14.7119 6.47587 15.4578 5.96487 15.9688C5.29145 16.6428 3.49857 16.9433 3.49857 16.9433C3.49857 16.9433 3.86964 15.0817 4.47435 14.4776C4.98535 13.9666 5.72874 13.8729 6.14853 14.2933ZM12.6829 6.87319C12.4343 6.87319 12.196 6.97192 12.0203 7.14765C11.8445 7.32338 11.7458 7.56172 11.7458 7.81024C11.7458 8.05876 11.8445 8.2971 12.0203 8.47283C12.196 8.64856 12.4343 8.74728 12.6829 8.74728C12.9314 8.74728 13.1697 8.64856 13.3455 8.47283C13.5212 8.2971 13.6199 8.05876 13.6199 7.81024C13.6199 7.56172 13.5212 7.32338 13.3455 7.14765C13.1697 6.97192 12.9314 6.87319 12.6829 6.87319Z" fill="currentColor"/>
    </g>
    <defs>
        <clipPath id="clip0_478_1536">
            <rect width="15" height="15" fill="white" transform="translate(3 2.5)"/>
        </clipPath>
    </defs>
</svg>
