<svg width="20" height="20" viewBox="0 0 21 20" fill="none" xmlns="http://www.w3.org/2000/svg">
    <path d="M14.6016 7.85156C14.4337 7.85156 14.2691 7.86469 14.1066 7.88438L12.7843 3.75H10.5C10.355 3.75 10.2159 3.80762 10.1133 3.91018C10.0107 4.01274 9.95312 4.15183 9.95312 4.29688C9.95312 4.44192 10.0107 4.58101 10.1133 4.68357C10.2159 4.78613 10.355 4.84375 10.5 4.84375H11.9853L12.3484 5.97906L6.74133 9.37023L5.53328 7.44141H6.125C6.27004 7.44141 6.40914 7.38379 6.5117 7.28123C6.61426 7.17867 6.67188 7.03957 6.67188 6.89453C6.67188 6.74949 6.61426 6.61039 6.5117 6.50783C6.40914 6.40527 6.27004 6.34766 6.125 6.34766H3.39062C3.24558 6.34766 3.10648 6.40527 3.00393 6.50783C2.90137 6.61039 2.84375 6.74949 2.84375 6.89453C2.84375 7.03957 2.90137 7.17867 3.00393 7.28123C3.10648 7.38379 3.24558 7.44141 3.39062 7.44141H4.24266L5.53437 9.50367C5.45836 9.4982 5.38234 9.49219 5.30469 9.49219C3.64602 9.49219 2.29688 10.8419 2.29688 12.5C2.29688 14.1581 3.64602 15.5078 5.30469 15.5078C6.96336 15.5078 8.3125 14.1581 8.3125 12.5C8.31217 12.0839 8.22526 11.6725 8.0573 11.2919C7.88934 10.9112 7.64399 10.5697 7.33687 10.289L12.6913 7.04984L13.0468 8.16C11.5538 8.77414 10.5 10.242 10.5 11.9531C10.5 14.215 12.3397 16.0547 14.6016 16.0547C16.8634 16.0547 18.7031 14.215 18.7031 11.9531C18.7031 9.69125 16.8634 7.85156 14.6016 7.85156ZM5.30469 14.4141C4.24922 14.4141 3.39062 13.5555 3.39062 12.5C3.39062 11.4445 4.24922 10.5859 5.30469 10.5859C6.36016 10.5859 7.21875 11.4445 7.21875 12.5C7.21875 13.5555 6.36016 14.4141 5.30469 14.4141ZM14.6016 14.9609C13.8042 14.9599 13.0397 14.6427 12.4758 14.0789C11.912 13.515 11.5948 12.7505 11.5938 11.9531C11.5946 11.3716 11.7639 10.8028 12.0812 10.3154C12.3985 9.82799 12.8501 9.44293 13.3815 9.20672L14.3511 12.2375C14.373 12.3059 14.4082 12.3693 14.4546 12.424C14.501 12.4788 14.5577 12.5239 14.6215 12.5568C14.6854 12.5896 14.755 12.6096 14.8266 12.6155C14.8981 12.6215 14.9701 12.6132 15.0385 12.5913C15.1069 12.5694 15.1703 12.5343 15.2251 12.4879C15.2798 12.4415 15.3249 12.3847 15.3578 12.3209C15.3907 12.2571 15.4106 12.1874 15.4165 12.1158C15.4225 12.0443 15.4142 11.9723 15.3923 11.9039L14.4484 8.95297C14.4993 8.95078 14.5502 8.94531 14.6016 8.94531C16.2597 8.94531 17.6094 10.295 17.6094 11.9531C17.6094 13.6112 16.2597 14.9609 14.6016 14.9609Z" fill="currentColor"/>
</svg>
