<svg width="20" height="20" viewBox="0 0 21 20" fill="none" xmlns="http://www.w3.org/2000/svg">
    <path d="M14.7394 12.0502C15.1639 12.0503 15.5763 12.1898 15.9119 12.4466C16.2476 12.7034 16.4873 13.0632 16.5936 13.4692H18.0904V14.4153H16.5939C16.4875 14.8212 16.2475 15.1808 15.9119 15.4374C15.5762 15.6941 15.1638 15.8333 14.7394 15.8333C14.3149 15.8333 13.9025 15.6941 13.5668 15.4374C13.2312 15.1808 12.9913 14.8212 12.8848 14.4153H8.61521C8.50873 14.8212 8.26882 15.1808 7.93316 15.4374C7.59749 15.6941 7.18507 15.8333 6.76064 15.8333C6.3362 15.8333 5.92378 15.6941 5.58812 15.4374C5.25245 15.1808 5.01255 14.8212 4.90606 14.4153H3.40957V13.4692H4.90606C5.01255 13.0633 5.25245 12.7038 5.58812 12.4471C5.92378 12.1904 6.3362 12.0512 6.76064 12.0512C7.18507 12.0512 7.59749 12.1904 7.93316 12.4471C8.26882 12.7038 8.50873 13.0633 8.61521 13.4692H12.8848C12.9911 13.0631 13.2309 12.7034 13.5666 12.4465C13.9023 12.1897 14.3148 12.0503 14.7394 12.0502ZM6.76064 12.9962C6.50671 12.9962 6.26318 13.0959 6.08362 13.2733C5.90407 13.4507 5.80319 13.6914 5.80319 13.9423C5.80319 14.1932 5.90407 14.4338 6.08362 14.6112C6.26318 14.7886 6.50671 14.8883 6.76064 14.8883C7.01457 14.8883 7.2581 14.7886 7.43766 14.6112C7.61721 14.4338 7.71809 14.1932 7.71809 13.9423C7.71809 13.6914 7.61721 13.4507 7.43766 13.2733C7.2581 13.0959 7.01457 12.9962 6.76064 12.9962ZM14.7394 12.9962C14.4854 12.9962 14.2419 13.0959 14.0623 13.2733C13.8828 13.4507 13.7819 13.6914 13.7819 13.9423C13.7819 14.1932 13.8828 14.4338 14.0623 14.6112C14.2419 14.7886 14.4854 14.8883 14.7394 14.8883C14.9933 14.8883 15.2368 14.7886 15.4164 14.6112C15.5959 14.4338 15.6968 14.1932 15.6968 13.9423C15.6968 13.6914 15.5959 13.4507 15.4164 13.2733C15.2368 13.0959 14.9933 12.9962 14.7394 12.9962ZM13.4628 4.16666V6.37721H15.2181C16.0222 6.37721 16.7934 6.69283 17.362 7.25464C17.9306 7.81645 18.25 8.57843 18.25 9.37295V12.5327H17.2926V9.37295C17.2926 8.82933 17.074 8.30798 16.685 7.92358C16.2959 7.53919 15.7683 7.32323 15.2181 7.32323H12.5053V5.11269H4.20745V12.5232H3.25V4.16666H13.4628ZM14.5798 8.10843V9.3698H16.4947V10.3158H13.6223V8.10843H14.5798Z" fill="currentColor"/>
</svg>
